<svg width="32" height="33" viewBox="0 0 32 33" fill="none" xmlns="http://www.w3.org/2000/svg">
<path d="M26.9539 15.0825L30.5001 15.3418" stroke="white" stroke-width="2" stroke-linecap="round"/>
<path d="M25.6105 21.0596L28.7242 22.7721" stroke="white" stroke-width="2" stroke-linecap="round"/>
<path d="M22.2742 6.5545L23.3121 5.11479L24.3499 3.67507" stroke="white" stroke-width="2" stroke-linecap="round"/>
<path d="M25.8489 10.4752L28.9405 8.72326" stroke="white" stroke-width="2" stroke-linecap="round"/>
<path d="M4.54614 15.0825L1 15.3417" stroke="white" stroke-width="2" stroke-linecap="round"/>
<path d="M5.88947 21.0596L2.77577 22.7721" stroke="white" stroke-width="2" stroke-linecap="round"/>
<path d="M9.78537 6.55444L8.74748 5.11473L7.70959 3.67501" stroke="white" stroke-width="2" stroke-linecap="round"/>
<path d="M5.65109 10.4752L2.55953 8.72326" stroke="white" stroke-width="2" stroke-linecap="round"/>
<path d="M16.036 4.54654V2.77327V1" stroke="white" stroke-width="2" stroke-linecap="round"/>
<path d="M21.4985 9.19446C20.505 8.37735 19.3416 7.79233 18.0932 7.4821C16.8448 7.17187 15.5428 7.14425 14.2824 7.40125C12.6041 7.74026 11.0643 8.57016 9.85846 9.78566C8.65257 11.0012 7.83493 12.5475 7.50926 14.2284C7.27144 15.4888 7.31466 16.7861 7.63583 18.0278C7.957 19.2695 8.54821 20.4251 9.36729 21.4121C10.1274 22.2698 10.5632 23.3668 10.5988 24.5124V27.7531C10.5988 28.6126 10.9402 29.4369 11.548 30.0447C12.1557 30.6524 12.98 30.9938 13.8395 30.9938H18.1605C19.02 30.9938 19.8443 30.6524 20.452 30.0447C21.0598 29.4369 21.4012 28.6126 21.4012 27.7531V24.7176C21.4375 23.4528 21.9022 22.2378 22.7191 21.2716C24.1506 19.5009 24.8254 17.2367 24.5968 14.9712C24.3682 12.7057 23.2548 10.622 21.4985 9.17286V9.19446ZM19.2407 27.7531C19.2407 28.0396 19.1269 28.3144 18.9243 28.517C18.7218 28.7195 18.447 28.8334 18.1605 28.8334H13.8395C13.553 28.8334 13.2782 28.7195 13.0757 28.517C12.8731 28.3144 12.7593 28.0396 12.7593 27.7531V26.6729H19.2407V27.7531ZM21.0448 19.9321C19.9586 21.2204 19.3249 22.8294 19.2407 24.5124H17.0803V21.2716C17.0803 20.9851 16.9664 20.7104 16.7639 20.5078C16.5613 20.3052 16.2865 20.1914 16 20.1914C15.7135 20.1914 15.4387 20.3052 15.2362 20.5078C15.0336 20.7104 14.9198 20.9851 14.9198 21.2716V24.5124H12.7593C12.7308 22.8575 12.1186 21.266 11.0309 20.0185C10.3132 19.1587 9.8306 18.1275 9.63013 17.0255C9.42965 15.9236 9.51815 14.7885 9.88698 13.731C10.2558 12.6734 10.8924 11.7295 11.7347 10.9913C12.5769 10.253 13.5961 9.7456 14.6929 9.51854C15.6355 9.32446 16.6094 9.34272 17.5441 9.57198C18.4787 9.80123 19.3506 10.2357 20.0964 10.8439C20.8421 11.4522 21.4431 12.2188 21.8557 13.0882C22.2682 13.9577 22.482 14.908 22.4815 15.8704C22.4895 17.3502 21.9814 18.7865 21.0448 19.9321V19.9321Z" fill="white"/>
<path d="M15.928 18.4528V15.3417" stroke="white" stroke-width="2" stroke-linecap="round" stroke-linejoin="round"/>
<path d="M15.918 12.6195H15.938" stroke="white" stroke-width="2" stroke-linecap="round" stroke-linejoin="round"/>
</svg>
