<svg width="32" height="33" viewBox="0 0 32 33" fill="none" xmlns="http://www.w3.org/2000/svg">
<path d="M26.9539 15.8233L30.5 16.0825" stroke="black" stroke-width="2" stroke-linecap="round"/>
<path d="M25.6105 21.8004L28.7242 23.5128" stroke="black" stroke-width="2" stroke-linecap="round"/>
<path d="M22.2741 7.29526L23.312 5.85554L24.3499 4.41582" stroke="black" stroke-width="2" stroke-linecap="round"/>
<path d="M25.8489 11.2159L28.9404 9.46402" stroke="black" stroke-width="2" stroke-linecap="round"/>
<path d="M4.54611 15.8232L0.999973 16.0825" stroke="black" stroke-width="2" stroke-linecap="round"/>
<path d="M5.88943 21.8004L2.77574 23.5128" stroke="black" stroke-width="2" stroke-linecap="round"/>
<path d="M9.78534 7.2952L8.74745 5.85548L7.70956 4.41576" stroke="black" stroke-width="2" stroke-linecap="round"/>
<path d="M5.65106 11.2159L2.5595 9.46402" stroke="black" stroke-width="2" stroke-linecap="round"/>
<path d="M16.036 5.28729V3.51402V1.74075" stroke="black" stroke-width="2" stroke-linecap="round"/>
<path d="M21.4984 9.93522C20.5049 9.1181 19.3415 8.53309 18.0931 8.22286C16.8447 7.91262 15.5428 7.885 14.2824 8.14201C12.6041 8.48101 11.0643 9.31091 9.85843 10.5264C8.65254 11.7419 7.8349 13.2882 7.50923 14.9692C7.27141 16.2295 7.31463 17.5268 7.6358 18.7685C7.95697 20.0103 8.54818 21.1658 9.36726 22.1528C10.1274 23.0106 10.5631 24.1075 10.5987 25.2531V28.4939C10.5987 29.3534 10.9402 30.1777 11.5479 30.7854C12.1557 31.3932 12.98 31.7346 13.8395 31.7346H18.1605C19.02 31.7346 19.8443 31.3932 20.452 30.7854C21.0598 30.1777 21.4012 29.3534 21.4012 28.4939V25.4584C21.4375 24.1936 21.9021 22.9786 22.7191 22.0124C24.1506 20.2416 24.8253 17.9775 24.5968 15.712C24.3682 13.4465 23.2548 11.3627 21.4984 9.91361V9.93522ZM19.2407 28.4939C19.2407 28.7804 19.1269 29.0551 18.9243 29.2577C18.7217 29.4603 18.447 29.5741 18.1605 29.5741H13.8395C13.553 29.5741 13.2782 29.4603 13.0756 29.2577C12.873 29.0551 12.7592 28.7804 12.7592 28.4939V27.4136H19.2407V28.4939ZM21.0447 20.6729C19.9585 21.9612 19.3248 23.5701 19.2407 25.2531H17.0802V22.0124C17.0802 21.7259 16.9664 21.4511 16.7638 21.2485C16.5612 21.0459 16.2865 20.9321 16 20.9321C15.7135 20.9321 15.4387 21.0459 15.2361 21.2485C15.0335 21.4511 14.9197 21.7259 14.9197 22.0124V25.2531H12.7592C12.7307 23.5983 12.1186 22.0067 11.0308 20.7593C10.3132 19.8994 9.83057 18.8682 9.63009 17.7663C9.42962 16.6644 9.51812 15.5293 9.88695 14.4717C10.2558 13.4142 10.8924 12.4703 11.7346 11.732C12.5769 10.9938 13.5961 10.4864 14.6929 10.2593C15.6354 10.0652 16.6094 10.0835 17.544 10.3127C18.4787 10.542 19.3505 10.9765 20.0963 11.5847C20.8421 12.1929 21.4431 12.9596 21.8556 13.829C22.2682 14.6984 22.482 15.6488 22.4815 16.6111C22.4895 18.0909 21.9814 19.5272 21.0447 20.6729V20.6729Z" fill="black"/>
<path d="M15.928 19.1936V16.0825" stroke="black" stroke-width="2" stroke-linecap="round" stroke-linejoin="round"/>
<path d="M15.918 13.3603H15.938" stroke="black" stroke-width="2" stroke-linecap="round" stroke-linejoin="round"/>
</svg>
