<svg width="133" height="133" viewBox="0 0 133 133" fill="none" xmlns="http://www.w3.org/2000/svg">
<path d="M59.4884 31.7969L70.544 25.4379C72.4559 24.3157 74.9497 24.9807 76.0718 26.9341C77.194 28.8876 76.529 31.3397 74.5756 32.4619L63.52 38.821L59.4884 31.7969ZM78.4825 65.047L89.5381 58.6879C91.45 57.5657 93.9437 58.2307 95.0659 60.1842C96.1881 62.1376 95.5231 64.5898 93.5697 65.712L82.514 72.071L78.4825 65.047Z" fill="#9B9B9B"/>
<path d="M17.5098 59.8928L19.5048 63.3841C23.3286 70.0341 30.0617 74.4397 37.6676 75.3541C42.863 75.9775 48.0999 74.8969 52.6302 72.2784L117.966 34.5812C124.492 30.799 126.653 22.2787 122.746 15.504C118.839 8.72933 110.36 6.3187 103.835 10.1009L71.7859 28.5868L55.3193 31.2545L50.8991 40.634L38.5337 47.7665L22.7421 49.1518L17.5098 59.8928Z" fill="#CDC4D6"/>
<path d="M104.957 22.278C105.788 23.7327 107.658 24.2314 109.113 23.4002L122.787 15.5033V15.4618C121.706 13.5914 120.293 12.0536 118.631 10.8899L106.079 18.1218C104.582 18.953 104.084 20.8233 104.957 22.278Z" fill="#00A6ED"/>
<path d="M71.8952 28.5238L50.8388 40.669L40.6605 35.9112C35.5067 33.5006 35.2158 26.3103 40.1202 23.4841C41.6165 22.6113 43.4037 22.3203 45.1078 22.6944L71.8952 28.5238ZM38.5823 47.7566L26.363 40.9405C21.1261 38.0727 14.767 38.1143 9.57171 41.1068C8.36639 41.8131 7.95077 43.3509 8.65733 44.5562L17.5101 59.8928L38.5823 47.7566ZM90.7018 36.3268L73.4534 46.3019C72.0403 47.0916 71.1259 48.5878 70.9596 50.2503L68.0503 83.4172C67.5515 89.0697 73.6612 92.935 78.5656 90.1087C80.0618 89.2359 81.184 87.8228 81.7243 86.1603L96.2296 40.774C97.2687 37.449 93.6943 34.5812 90.7018 36.3268Z" fill="#0084CE"/>
<path d="M120.543 99.75H12.4809C10.1855 99.75 8.32468 101.611 8.32468 103.906V120.531C8.32468 122.827 10.1855 124.688 12.4809 124.688H120.543C122.839 124.688 124.7 122.827 124.7 120.531V103.906C124.7 101.611 122.839 99.75 120.543 99.75Z" fill="#636363"/>
<path d="M18.7031 110.141C17.5554 110.141 16.625 111.071 16.625 112.219C16.625 113.366 17.5554 114.297 18.7031 114.297H33.25C34.3977 114.297 35.3281 113.366 35.3281 112.219C35.3281 111.071 34.3977 110.141 33.25 110.141H18.7031Z" fill="#9B9B9B"/>
<path d="M45.7188 110.141C44.5712 110.141 43.6406 111.071 43.6406 112.219C43.6406 113.366 44.5712 114.297 45.7188 114.297H60.2656C61.4132 114.297 62.3438 113.366 62.3438 112.219C62.3438 111.071 61.4132 110.141 60.2656 110.141H45.7188Z" fill="#9B9B9B"/>
<path d="M70.6562 112.219C70.6562 111.071 71.5868 110.141 72.7344 110.141H87.2812C88.4288 110.141 89.3594 111.071 89.3594 112.219C89.3594 113.366 88.4288 114.297 87.2812 114.297H72.7344C71.5868 114.297 70.6562 113.366 70.6562 112.219Z" fill="#9B9B9B"/>
<path d="M99.75 110.141C98.6025 110.141 97.6719 111.071 97.6719 112.219C97.6719 113.366 98.6025 114.297 99.75 114.297H114.297C115.444 114.297 116.375 113.366 116.375 112.219C116.375 111.071 115.444 110.141 114.297 110.141H99.75Z" fill="#9B9B9B"/>
</svg>
