<svg width="146" height="146" viewBox="0 0 146 146" fill="none" xmlns="http://www.w3.org/2000/svg">
<path d="M79.7516 86.2312C96.0041 86.2312 109.18 73.0557 109.18 56.8031C109.18 40.5504 96.0041 27.375 79.7516 27.375C63.4986 27.375 50.3235 40.5504 50.3235 56.8031C50.3235 73.0557 63.4986 86.2312 79.7516 86.2312Z" fill="#26C9FC"/>
<path d="M89.091 100.555L53.5866 91.25L22.8125 136.875H91.25L89.091 100.555Z" fill="#FCD53F"/>
<path d="M9.125 59.5867C13.9156 75.8292 26.6906 89.2429 44.2562 93.9423L91.9344 106.717C109.454 111.417 127.294 106.17 139.521 94.5355L77.6615 70.3337L9.125 59.5867Z" fill="#9B9B9B"/>
<path d="M139.521 94.535C134.731 78.2925 121.956 64.8787 104.39 60.1794L56.7119 47.4044C39.1919 42.6594 21.3525 47.9062 9.125 59.5862L139.521 94.535Z" fill="#D3D3D3"/>
<path d="M95.8125 50.1875C98.3324 50.1875 100.375 48.1449 100.375 45.625C100.375 43.1052 98.3324 41.0625 95.8125 41.0625C93.2926 41.0625 91.25 43.1052 91.25 45.625C91.25 48.1449 93.2926 50.1875 95.8125 50.1875Z" fill="white"/>
<path d="M43.845 57.4875C43.845 60.0074 41.8023 62.05 39.2825 62.05C36.7627 62.05 34.72 60.0074 34.72 57.4875C34.72 54.9676 36.7627 52.925 39.2825 52.925C41.8023 52.925 43.845 54.9676 43.845 57.4875ZM57.8977 67.0231C60.4175 67.0231 62.4602 64.9805 62.4602 62.4606C62.4602 59.9408 60.4175 57.8981 57.8977 57.8981C55.3778 57.8981 53.3352 59.9408 53.3352 62.4606C53.3352 64.9805 55.3778 67.0231 57.8977 67.0231ZM76.5583 72.0419C79.0781 72.0419 81.1208 69.9992 81.1208 67.4794C81.1208 64.9595 79.0781 62.9169 76.5583 62.9169C74.0384 62.9169 71.9958 64.9595 71.9958 67.4794C71.9958 69.9992 74.0384 72.0419 76.5583 72.0419ZM95.1733 77.015C97.6927 77.015 99.7358 74.9724 99.7358 72.4525C99.7358 69.9326 97.6927 67.89 95.1733 67.89C92.6534 67.89 90.6108 69.9326 90.6108 72.4525C90.6108 74.9724 92.6534 77.015 95.1733 77.015ZM118.351 77.4256C118.351 79.9455 116.308 81.9881 113.788 81.9881C111.268 81.9881 109.226 79.9455 109.226 77.4256C109.226 74.9058 111.268 72.8631 113.788 72.8631C116.308 72.8631 118.351 74.9058 118.351 77.4256Z" fill="#321B41"/>
</svg>
