<svg width="155" height="155" viewBox="0 0 155 155" fill="none" xmlns="http://www.w3.org/2000/svg">
<path d="M67.8125 58.125H48.3318C45.3423 58.125 42.5203 59.505 40.6849 61.8649L13.7688 96.4715C11.1236 99.8723 9.6875 104.058 9.6875 108.366V121.094C9.6875 126.444 14.0247 130.781 19.375 130.781H69.3586C69.3586 95.4621 73.2293 63.3926 67.8125 58.125Z" fill="#E6E6E6"/>
<path d="M72.1215 42.9534C71.9113 43.1616 71.7074 43.3761 71.5097 43.5967C69.2104 46.1672 67.8125 49.5608 67.8125 53.2812V102.157H145.312V48.4375C145.312 46.6688 144.838 45.0108 144.01 43.5836C143.886 43.3682 143.753 43.158 143.612 42.9534H72.1215Z" fill="#F92F60"/>
<path d="M82.3438 38.75C78.0401 38.75 74.1733 40.6209 71.5126 43.5938H144.016C142.341 40.6982 139.211 38.75 135.625 38.75H82.3438ZM145.312 101.719H67.8125V130.781H135.625C140.975 130.781 145.312 126.444 145.312 121.094V101.719Z" fill="#D3D3D3"/>
<path d="M58.125 128.359C58.125 137.722 50.5348 145.312 41.1719 145.312C31.8089 145.312 24.2188 137.722 24.2188 128.359C24.2188 118.996 31.8089 111.406 41.1719 111.406C50.5348 111.406 58.125 118.996 58.125 128.359ZM130.781 128.359C130.781 137.722 123.191 145.312 113.828 145.312C104.465 145.312 96.875 137.722 96.875 128.359C96.875 118.996 104.465 111.406 113.828 111.406C123.191 111.406 130.781 118.996 130.781 128.359Z" fill="#433B6B"/>
<path d="M48.4375 128.359C48.4375 132.372 45.1846 135.625 41.1719 135.625C37.1592 135.625 33.9062 132.372 33.9062 128.359C33.9062 124.347 37.1592 121.094 41.1719 121.094C45.1846 121.094 48.4375 124.347 48.4375 128.359ZM121.094 128.359C121.094 132.372 117.841 135.625 113.828 135.625C109.816 135.625 106.562 132.372 106.562 128.359C106.562 124.347 109.816 121.094 113.828 121.094C117.841 121.094 121.094 124.347 121.094 128.359Z" fill="#F4F4F4"/>
<path d="M106.562 58.125C103.887 58.125 101.719 60.2935 101.719 62.9688V67.8125H96.875C94.1998 67.8125 92.0312 69.981 92.0312 72.6562C92.0312 75.3315 94.1998 77.5 96.875 77.5H101.719V82.3438C101.719 85.019 103.887 87.1875 106.562 87.1875C109.238 87.1875 111.406 85.019 111.406 82.3438V77.5H116.25C118.925 77.5 121.094 75.3315 121.094 72.6562C121.094 69.981 118.925 67.8125 116.25 67.8125H111.406V62.9688C111.406 60.2935 109.238 58.125 106.562 58.125Z" fill="#F4F4F4"/>
<path d="M14.5312 121.094H9.6875V108.366C9.6875 106.083 10.0908 103.835 10.8637 101.719H14.5312C17.2064 101.719 19.375 103.887 19.375 106.562V116.25C19.375 118.925 17.2064 121.094 14.5312 121.094ZM142.891 106.562C138.878 106.562 135.625 109.816 135.625 113.828C135.625 117.841 138.878 121.094 142.891 121.094H145.312V106.562H142.891Z" fill="#FF822D"/>
<path d="M20.9895 87.1875H53.2813C58.6312 87.1875 62.9688 82.8504 62.9688 77.5V67.8125C62.9688 65.1373 60.8002 62.9688 58.125 62.9688H39.8263L20.9895 87.1875Z" fill="#26C9FC"/>
<path d="M48.4375 58.125C48.4375 55.4498 50.606 53.2812 53.2812 53.2812H62.9688C65.644 53.2812 67.8125 55.4498 67.8125 58.125H48.4375Z" fill="#D3D3D3"/>
<path d="M53.2812 53.2812C53.2812 50.606 55.4498 48.4375 58.125 48.4375C60.8002 48.4375 62.9688 50.606 62.9688 53.2812H53.2812Z" fill="#F8312F"/>
</svg>
