<svg width="162" height="162" viewBox="0 0 162 162" fill="none" xmlns="http://www.w3.org/2000/svg">
<path fill-rule="evenodd" clip-rule="evenodd" d="M63.2812 124.031C63.2812 138.011 51.9483 149.344 37.9688 149.344C23.9891 149.344 12.6562 138.011 12.6562 124.031C12.6562 110.052 23.9891 98.7188 37.9688 98.7188C51.9483 98.7188 63.2812 110.052 63.2812 124.031ZM55.6875 124.031C55.6875 133.817 47.7546 141.75 37.9688 141.75C28.1829 141.75 20.25 133.817 20.25 124.031C20.25 114.245 28.183 106.312 37.9688 106.312C47.7545 106.312 55.6875 114.245 55.6875 124.031Z" fill="#F3EEF8"/>
<path fill-rule="evenodd" clip-rule="evenodd" d="M149.344 124.031C149.344 138.011 138.011 149.344 124.031 149.344C110.052 149.344 98.7188 138.011 98.7188 124.031C98.7188 110.052 110.052 98.7188 124.031 98.7188C138.011 98.7188 149.344 110.052 149.344 124.031ZM141.75 124.031C141.75 133.817 133.817 141.75 124.031 141.75C114.245 141.75 106.312 133.817 106.312 124.031C106.312 114.245 114.245 106.312 124.031 106.312C133.817 106.312 141.75 114.245 141.75 124.031Z" fill="#F3EEF8"/>
<path fill-rule="evenodd" clip-rule="evenodd" d="M60.75 124.031C60.75 136.613 50.5505 146.812 37.9688 146.812C25.387 146.812 15.1875 136.613 15.1875 124.031C15.1875 111.449 25.387 101.25 37.9688 101.25C50.5505 101.25 60.75 111.449 60.75 124.031ZM37.9688 151.875C53.3466 151.875 65.8125 139.409 65.8125 124.031C65.8125 108.654 53.3466 96.1875 37.9688 96.1875C22.5911 96.1875 10.125 108.654 10.125 124.031C10.125 139.409 22.5911 151.875 37.9688 151.875ZM146.812 124.031C146.812 136.613 136.613 146.812 124.031 146.812C111.449 146.812 101.25 136.613 101.25 124.031C101.25 111.449 111.449 101.25 124.031 101.25C136.613 101.25 146.812 111.449 146.812 124.031ZM124.031 151.875C139.409 151.875 151.875 139.409 151.875 124.031C151.875 108.654 139.409 96.1875 124.031 96.1875C108.653 96.1875 96.1875 108.654 96.1875 124.031C96.1875 139.409 108.653 151.875 124.031 151.875Z" fill="#321B41"/>
<path d="M70.875 48.0938C70.875 46.6958 69.7415 45.5625 68.3438 45.5625H58.2188C51.229 45.5625 45.5625 51.229 45.5625 58.2188C45.5625 65.2085 51.229 70.875 58.2188 70.875H59.0485L55.8292 77.274C55.1696 78.5938 55.7042 80.1981 57.024 80.8583C58.3438 81.5179 59.9486 80.9833 60.6083 79.6635L65.0293 70.875H68.3438C69.7415 70.875 70.875 69.7415 70.875 68.3438C70.875 66.946 69.7415 65.8125 68.3438 65.8125H58.2188C54.025 65.8125 50.625 62.4125 50.625 58.2188C50.625 54.025 54.025 50.625 58.2188 50.625H68.3438C69.7415 50.625 70.875 49.4917 70.875 48.0938ZM101.774 68.2552C103.221 68.5447 104.159 69.9521 103.87 71.399L101.339 84.0552C101.049 85.5016 99.6416 86.4402 98.1948 86.1506C96.7479 85.8615 95.8098 84.4541 96.0989 83.0073L98.6302 70.351C98.9197 68.9042 100.327 67.9661 101.774 68.2552Z" fill="#D3D3D3"/>
<path d="M60.9044 79.6625C61.563 78.1792 60.8953 76.4427 59.4125 75.7836C57.9292 75.1245 56.1927 75.7922 55.5336 77.2755L35.2837 122.838C34.6245 124.321 35.2924 126.058 36.7755 126.717C38.2585 127.376 39.995 126.708 40.6542 125.225L53.8797 95.4671L89.2893 123.795C90.0998 124.443 91.1913 124.616 92.1623 124.249C93.1328 123.883 93.8385 123.032 94.0187 122.011L100.2 86.9884L121.835 124.881C122.639 126.29 124.434 126.78 125.843 125.976C127.253 125.171 127.743 123.376 126.938 121.967L101.271 77.0118C100.657 75.937 99.4356 75.3619 98.2155 75.574C96.996 75.7856 96.0402 76.7394 95.825 77.9585L89.0924 116.111L56.3477 89.9151L60.9044 79.6625Z" fill="#F92F60"/>
<path d="M127.046 118.468L92.2641 111.465C86.3161 110.66 81 115.382 81 121.5C81 127.618 86.2635 132.34 92.2641 131.535L127.046 129.094C129.677 128.718 131.625 126.464 131.625 123.781C131.625 121.098 129.625 118.79 127.046 118.468Z" fill="#F9C23C"/>
<path d="M91.125 65.8125C91.125 63.0165 93.3915 60.75 96.1875 60.75H106.312C109.109 60.75 111.375 63.0165 111.375 65.8125C111.375 68.6085 109.109 70.875 106.312 70.875H96.1875C93.3915 70.875 91.125 68.6085 91.125 65.8125Z" fill="#9D5044"/>
<path d="M60.75 48.0938C60.75 46.6958 61.8835 45.5625 63.2812 45.5625H73.4062C74.804 45.5625 75.9375 46.6958 75.9375 48.0938C75.9375 49.4917 74.804 50.625 73.4062 50.625H63.2812C61.8835 50.625 60.75 49.4917 60.75 48.0938Z" fill="#533566"/>
<path d="M91.125 126.562C93.921 126.562 96.1875 124.296 96.1875 121.5C96.1875 118.704 93.921 116.438 91.125 116.438C88.329 116.438 86.0625 118.704 86.0625 121.5C86.0625 124.296 88.329 126.562 91.125 126.562Z" fill="#F4F4F4"/>
</svg>
