<svg width="159" height="159" viewBox="0 0 159 159" fill="none" xmlns="http://www.w3.org/2000/svg">
<path d="M144.366 124.219H134.156V104.344H144.366C146.954 104.344 149.062 106.451 149.062 109.037V119.525C149.062 122.159 146.954 124.219 144.366 124.219Z" fill="#998EA4"/>
<path d="M99.375 54.6558H119.25V44.7188H104.344L99.375 54.6558ZM129.188 59.9872V84.4688L84.4688 89.4375L34.7812 84.4688L59.625 59.6702L94.3576 58.3828L129.091 59.625L129.12 59.705C129.157 59.8004 129.188 59.8799 129.188 59.9872ZM9.9375 94.4062V94.7859C12.5332 116.938 32.2508 134.156 56.2612 134.156H133.934C136.779 134.156 139.125 131.974 139.125 129.223V94.4062H9.9375Z" fill="#CDC4D6"/>
<path d="M114.394 64.5938H104.134C101.507 64.5938 99.3263 66.7234 99.3263 69.3975V74.6962C99.3263 77.3212 101.458 79.5 104.134 79.5H114.394C117.021 79.5 119.201 77.3704 119.201 74.6962V69.3975C119.201 66.7725 117.07 64.5938 114.394 64.5938Z" fill="#26EAFC"/>
<path d="M89.4375 74.4816V69.5625C89.4375 66.8297 87.1926 64.5938 84.4489 64.5938H54.7159L39.75 79.5H84.4489C87.1926 79.4503 89.4375 77.2144 89.4375 74.4816Z" fill="#26EAFC"/>
<path d="M89.4375 69.5625V74.4816C89.4375 77.2144 87.1926 79.4503 84.4489 79.5H39.75L54.7159 64.5938H84.4489C87.1926 64.5938 89.4375 66.8297 89.4375 69.5625ZM104.133 64.5938H114.393C117.069 64.5938 119.2 66.7725 119.2 69.3975V74.6962C119.2 77.3704 117.02 79.5 114.393 79.5H104.133C101.456 79.5 99.3253 77.3212 99.3253 74.6962V69.3975C99.3253 66.7234 101.506 64.5938 104.133 64.5938Z" fill="#00A6ED"/>
<path d="M111.797 39.75H114.281C117.294 39.75 119.25 42.2343 119.25 44.7188H104.344C104.344 44.7188 106.828 39.75 111.797 39.75ZM123.902 54.6562H66.8555C65.4096 54.6562 64.0631 55.2028 63.0659 56.1966L59.625 59.625H129.188C128.988 56.8922 126.694 54.6562 123.902 54.6562ZM133.946 84.4688C136.834 84.4688 139.125 86.8041 139.125 89.6363V94.4062L74.5312 99.375L9.9375 94.4062V89.6363C9.9375 86.7544 12.2782 84.4688 15.117 84.4688H133.946Z" fill="#F8312F"/>
<path d="M149.062 114.281C140.37 114.281 140.37 120.774 131.629 120.774C122.936 120.774 122.936 114.281 114.194 114.281C105.502 114.281 105.502 120.774 96.8101 120.774C88.1178 120.774 88.1178 114.281 79.4255 114.281C70.7331 114.281 70.7331 120.774 62.0413 120.774C53.349 120.774 53.349 114.281 44.6566 114.281C35.9645 114.281 35.9645 120.774 27.3219 120.774C18.6297 120.774 18.6297 114.281 9.9375 114.281V149.062H149.013L149.062 114.281Z" fill="#00A6ED"/>
</svg>
