<svg width="187" height="187" viewBox="0 0 187 187" fill="none" xmlns="http://www.w3.org/2000/svg">
<path d="M175.312 58.0869V116.875L93.5 128.562L11.6875 116.875V58.0869C11.6875 51.8341 16.7716 46.75 23.0244 46.75H163.976C170.287 46.75 175.312 51.8341 175.312 58.0869Z" fill="#E6E6E6"/>
<path d="M35.0625 106.006V63.4631C35.0625 60.7166 32.6081 58.4375 29.6278 58.4375H11.6875V111.031H29.6278C32.6081 111.031 35.0625 108.752 35.0625 106.006ZM52.1847 58.4375H76.4362C79.4166 58.4375 81.8125 60.7166 81.8709 63.4631V105.947C81.8709 108.694 79.4166 110.973 76.4362 110.973H52.1847C49.2044 110.973 46.75 108.752 46.75 105.947V63.4631C46.75 60.7166 49.2044 58.4375 52.1847 58.4375ZM117.342 58.4375H93.0909C90.1106 58.4375 87.6562 60.7166 87.6562 63.4631V105.947C87.6562 108.752 90.1106 110.973 93.0909 110.973H117.342C120.323 110.973 122.777 108.694 122.777 105.947V63.4631C122.719 60.7166 120.323 58.4375 117.342 58.4375ZM133.997 58.4375H158.249C161.229 58.4375 163.625 60.7166 163.683 63.4631V105.947C163.683 108.694 161.229 110.973 158.249 110.973H133.997C131.017 110.973 128.562 108.752 128.562 105.947V63.4631C128.562 60.7166 131.017 58.4375 133.997 58.4375Z" fill="#26C9FC"/>
<path d="M175.312 116.875V146.444C175.312 152.697 170.228 157.781 163.976 157.781H23.0244C16.7716 157.781 11.6875 152.697 11.6875 146.444V116.875H175.312Z" fill="#FFB02E"/>
<path d="M11.6875 58.4375H29.6278C32.6081 58.4375 35.0625 60.7166 35.0625 63.4631V70.125H11.6875V58.4375ZM38.1012 99.3438H35.8222C32.1991 99.3438 29.2188 96.4219 29.2188 92.7403V82.5722C29.2188 78.9491 32.1991 75.9688 35.8222 75.9688H38.1012C39.6206 75.9688 40.9062 77.1959 40.9062 78.7737V96.5388C40.9062 98.0581 39.6791 99.3438 38.1012 99.3438ZM70.3003 154.859C70.3003 166.155 61.1432 175.312 49.8472 175.312C38.5512 175.312 29.3941 166.155 29.3941 154.859C29.3941 143.563 38.5512 134.406 49.8472 134.406C61.1432 134.406 70.3003 143.563 70.3003 154.859ZM137.387 175.312C148.683 175.312 157.84 166.155 157.84 154.859C157.84 143.563 148.683 134.406 137.387 134.406C126.091 134.406 116.933 143.563 116.933 154.859C116.933 166.155 126.091 175.312 137.387 175.312Z" fill="#212121"/>
<path d="M175.313 122.719H172.391C167.423 122.719 163.391 126.868 163.625 131.893C163.859 136.627 167.949 140.25 172.683 140.25H175.313V122.719Z" fill="#F92F60"/>
<path d="M17.0053 146.094H11.6875V122.719H17.0053C20.5116 122.719 23.375 125.582 23.375 129.088V139.724C23.375 143.23 20.57 146.094 17.0053 146.094Z" fill="#FFF478"/>
<path d="M58.4375 154.859C58.4375 159.7 54.513 163.625 49.6719 163.625C44.8307 163.625 40.9062 159.7 40.9062 154.859C40.9062 150.018 44.8307 146.094 49.6719 146.094C54.513 146.094 58.4375 150.018 58.4375 154.859ZM146.094 154.859C146.094 159.7 142.169 163.625 137.328 163.625C132.487 163.625 128.562 159.7 128.562 154.859C128.562 150.018 132.487 146.094 137.328 146.094C142.169 146.094 146.094 150.018 146.094 154.859Z" fill="#D3D3D3"/>
</svg>
