<svg width="184" height="184" viewBox="0 0 184 184" fill="none" xmlns="http://www.w3.org/2000/svg">
<path d="M141.68 57.5H86.7675H86.135C80.04 57.73 74.405 61.0075 71.0125 66.0675L69 69L60.7539 86.1637L45.885 103.5H28.06C20.6425 103.5 14.375 108.33 12.2475 115L13.7772 123.625L11.5 132.25V138L92 143.75L172.5 138V112.183C172.5 109.25 172.213 106.318 171.695 103.5L164.135 87.4638C164.135 87.4638 159.735 69.575 159.62 69.23C156.515 62.1575 149.5 57.5 141.68 57.5Z" fill="#F8312F"/>
<path d="M164.508 149.5H19.4925C15.065 149.5 11.5 145.935 11.5 141.508V138H172.5V141.508C172.5 145.935 168.935 149.5 164.508 149.5Z" fill="#9B9B9B"/>
<path d="M69 69L45.9424 103.5H86.4225C89.47 103.5 91.9425 101.028 91.9425 97.98V74.52C91.9425 71.4725 89.47 69 86.4225 69H69ZM132.308 103.5H109.077C106.03 103.5 103.558 101.028 103.558 97.98V74.52C103.558 71.4725 106.03 69 109.077 69H132.308C135.355 69 137.827 71.4725 137.827 74.52V97.98C137.827 101.028 135.355 103.5 132.308 103.5ZM160.022 70.2075L169.452 95.335C170.43 97.98 171.178 100.74 171.638 103.5H154.905C151.858 103.5 149.385 101.028 149.385 97.98V74.98C149.385 71.7025 152.088 69 155.365 69H159.505C159.505 69 159.907 69.8625 160.022 70.2075Z" fill="#26C9FC"/>
<path d="M22.9425 126.5V120.75C22.9425 117.587 20.355 115 17.1925 115H12.305C11.73 116.667 11.5 118.45 11.5 122.303V132.25H17.1925C20.355 132.25 22.9425 129.663 22.9425 126.5Z" fill="#E6E6E6"/>
<path d="M69.115 146.625C69.115 157.74 60.1047 166.75 48.9901 166.75C37.8754 166.75 28.8651 157.74 28.8651 146.625C28.8651 135.51 37.8754 126.5 48.9901 126.5C60.1047 126.5 69.115 135.51 69.115 146.625ZM155.25 146.625C155.25 157.74 146.24 166.75 135.125 166.75C124.01 166.75 115 157.74 115 146.625C115 135.51 124.01 126.5 135.125 126.5C146.24 126.5 155.25 135.51 155.25 146.625Z" fill="#321B41"/>
<path d="M57.5 146.625C57.5 151.388 53.6385 155.25 48.875 155.25C44.1115 155.25 40.25 151.388 40.25 146.625C40.25 141.862 44.1115 138 48.875 138C53.6385 138 57.5 141.862 57.5 146.625ZM143.75 146.625C143.75 151.388 139.888 155.25 135.125 155.25C130.362 155.25 126.5 151.388 126.5 146.625C126.5 141.862 130.362 138 135.125 138C139.888 138 143.75 141.862 143.75 146.625Z" fill="#E6E6E6"/>
<path d="M172.443 115H169.568C164.68 115 160.713 119.082 160.943 124.027C161.173 128.685 165.198 132.25 169.855 132.25H172.443V115Z" fill="#CA0B4A"/>
<path d="M63.9975 109.25H66.24C67.7925 109.25 69 107.985 69 106.49V94.76C69 93.2075 67.735 92 66.24 92H63.9975C60.4325 92 57.5 94.9325 57.5 98.4975V102.753C57.5 106.318 60.4325 109.25 63.9975 109.25Z" fill="#321B41"/>
</svg>
