<svg width="128" height="128" viewBox="0 0 128 128" fill="none" xmlns="http://www.w3.org/2000/svg">
<path d="M120 38C120 36.8954 119.104 36 118 36H54C52.8956 36 52 36.8954 52 38C52 39.1046 52.8956 40 54 40H56V52H54C52.8956 52 52 52.8956 52 54C52 55.1044 52.8956 56 54 56H118C119.104 56 120 55.1044 120 54C120 52.8956 119.104 52 118 52H108.8C108.358 52 108 51.642 108 51.2V40.8C108 40.358 108.358 40 108.8 40H118C119.104 40 120 39.1046 120 38ZM72 40.8V51.2C72 51.642 71.642 52 71.2 52H60.8C60.358 52 60 51.642 60 51.2V40.8C60 40.358 60.358 40 60.8 40H71.2C71.642 40 72 40.358 72 40.8ZM76 40.4C76 40.1792 76.1792 40 76.4 40H87.6C87.8208 40 88 40.1792 88 40.4V51.2C88 51.642 87.642 52 87.2 52H76.8C76.358 52 76 51.642 76 51.2V40.4ZM104 40.8V51.2C104 51.642 103.642 52 103.2 52H92.8C92.358 52 92 51.642 92 51.2V40.8C92 40.358 92.358 40 92.8 40H103.2C103.642 40 104 40.358 104 40.8Z" fill="#D3D3D3"/>
<path d="M19.6 72H9.24L8.64 76L64.32 80L120 76V62.7604C120 59.018 116.96 56 113.24 56H56V35.08C56 31.16 52.8 27.96 48.88 27.96H20.84C18.04 27.96 15.68 30 15.28 32.76L14.76 36H19.6C22 36 24 37.96 24 40.4V67.6C24 70.04 22 72 19.6 72ZM113.24 108H15.12C11.2 108 8 104.8 8 100.88V83.6H120V101.24C120 104.96 116.96 108 113.24 108Z" fill="#F8312F"/>
<path d="M8.48 76.84C8.2 78.6 8.04 80.4 8 82.2V84H120V76H8.6L8.48 76.84Z" fill="#F4F4F4"/>
<path d="M41.64 24H30.36C29.08 24 28 25.04 28 26.36V28H44V26.36C44 25.04 42.96 24 41.64 24Z" fill="#9B9B9B"/>
<path d="M40 20C40 17.8 38.2 16 36 16C33.8 16 32 17.8 32 20V24H40V20Z" fill="#F92F60"/>
<path d="M48 106C48 113.732 41.732 120 34 120C26.268 120 20 113.732 20 106C20 98.268 26.268 92 34 92C41.732 92 48 98.268 48 106ZM108 106C108 113.732 101.732 120 94 120C86.268 120 80 113.732 80 106C80 98.268 86.268 92 94 92C101.732 92 108 98.268 108 106Z" fill="#321B41"/>
<path d="M40 106C40 109.314 37.3137 112 34 112C30.6863 112 28 109.314 28 106C28 102.686 30.6863 100 34 100C37.3137 100 40 102.686 40 106ZM100 106C100 109.314 97.3136 112 94 112C90.6864 112 88 109.314 88 106C88 102.686 90.6864 100 94 100C97.3136 100 100 102.686 100 106Z" fill="#F4F4F4"/>
<path d="M24 67.6C24 70.04 22 72 19.6 72H9.24001L14.76 36H19.6C22 36 24 37.96 24 40.4V67.6ZM32 36C29.7909 36 28 37.7909 28 40V68C28 70.2092 29.7909 72 32 72H44C46.2092 72 48 70.2092 48 68V40C48 37.7909 46.2092 36 44 36H32Z" fill="#26C9FC"/>
<path d="M12 92C12 89.7908 10.2091 88 8 88V100C10.2091 100 12 98.2092 12 96V92ZM116 88C113.791 88 112 89.7908 112 92C112 94.2092 113.791 96 116 96H120V88H116Z" fill="#FCD53F"/>
</svg>
