<svg width="129" height="129" viewBox="0 0 129 129" fill="none" xmlns="http://www.w3.org/2000/svg">
<path d="M48.375 24.1875H52.4062V28.2188H88.6875C90.9047 28.2188 92.7188 30.0328 92.7188 32.25C92.7188 34.4672 90.9047 36.2812 88.6875 36.2812H52.4062V40.3125H48.375V36.2812H16.125C13.9078 36.2812 12.0938 34.4672 12.0938 32.25C12.0938 30.0328 13.9078 28.2188 16.125 28.2188H48.375V24.1875ZM56.4375 95.5809L59.2997 92.7188L81.4716 114.891L78.6094 117.753L56.4375 95.5809ZM32.25 95.4197H28.2188V118.237H32.25V95.4197Z" fill="#B4ACBC"/>
<path d="M113.117 28.2188C112.109 28.2188 111.142 28.6219 110.416 29.3475L95.4197 44.3438H42.3281C38.9822 44.3438 36.2812 47.0447 36.2812 50.3906C36.2812 53.7366 38.9822 56.4375 42.3281 56.4375H72.5625V76.5938L92.7188 56.4375H110.859C114.205 56.4375 116.906 53.7366 116.906 50.3906V32.0081C116.906 29.9521 115.213 28.2188 113.117 28.2188Z" fill="#FFB02E"/>
<path d="M52.4062 22.1719C52.4062 21.0431 51.5194 20.1562 50.3906 20.1562C49.2619 20.1562 48.375 21.0431 48.375 22.1719V24.1875H52.4062V22.1719Z" fill="#F8312F"/>
<path d="M8.0625 116.906C8.0625 114.689 9.87656 112.875 12.0938 112.875H92.7188C94.9359 112.875 96.75 114.689 96.75 116.906C96.75 119.123 94.9359 120.938 92.7188 120.938H12.0938C9.87656 120.938 8.0625 119.164 8.0625 116.906Z" fill="#FF822D"/>
<path d="M54.0591 40.3125H46.7222C45.3919 40.3125 44.3438 41.4009 44.3438 42.6909V48.375H56.4375V42.6909C56.4375 41.4009 55.3491 40.3125 54.0591 40.3125Z" fill="#FCD53F"/>
<path d="M110.416 29.3475C111.142 28.6219 112.109 28.2188 113.117 28.2188C115.213 28.2188 116.906 29.9521 116.906 32.0081V50.3906C116.906 53.7366 114.205 56.4375 110.859 56.4375H92.7188L80.3722 68.784C80.5387 70.0204 80.625 71.2814 80.625 72.5625C80.625 88.1634 67.958 100.781 52.2962 100.781H36.1081C21.8223 100.781 10.0455 90.2597 8.0625 76.5938L26.5977 64.8628L28.2188 45.5128C30.7684 44.7469 33.2753 44.3438 36.1081 44.3438H95.4197L110.416 29.3475Z" fill="#FF822D"/>
<path d="M108.844 52.4062C111.07 52.4062 112.875 50.6015 112.875 48.375C112.875 46.1485 111.07 44.3438 108.844 44.3438C106.617 44.3438 104.812 46.1485 104.812 48.375C104.812 50.6015 106.617 52.4062 108.844 52.4062Z" fill="#E6E6E6"/>
<path d="M8.34465 76.5938C8.14308 75.2634 8.0625 73.9331 8.0625 72.5625C8.0625 59.7834 16.5684 48.9797 28.2188 45.5128L44.9887 71.3934C46.44 73.6509 44.8275 76.5938 42.1669 76.5938H8.34465ZM50.2697 67.08L41.4816 53.5753C40.0303 51.3581 41.6428 48.375 44.3034 48.4153H53.0916C54.9459 48.4153 56.4375 49.9069 56.4375 51.7613V65.2659C56.4375 68.6119 52.0838 69.9019 50.2697 67.08Z" fill="#00A6ED"/>
<path d="M10.5092 84.6562C11.9604 87.6797 13.916 90.4209 16.2541 92.7188H72.1191C74.4975 90.4209 76.5055 87.6797 77.9164 84.6562H10.5092Z" fill="#FCD53F"/>
</svg>
