<svg width="158" height="158" viewBox="0 0 158 158" fill="none" xmlns="http://www.w3.org/2000/svg">
<path d="M74.0625 34.5625C71.3355 34.5625 69.125 36.7731 69.125 39.5C69.125 42.2269 71.3355 44.4375 74.0625 44.4375H77.4062L102.891 49.3522L128.375 44.4375V39.5C128.375 36.7731 126.164 34.5625 123.438 34.5625H74.0625ZM128.375 79L93.8125 71.5938L54.3125 79.0005H24.6875C17.2812 79.0005 9.875 86.4062 9.875 93.9611V123.456C9.875 128.878 14.3153 133.313 19.7424 133.313H124.682C132.181 133.313 138.25 127.251 138.25 119.76V91.0263C138.25 85.1106 133.999 80.2082 128.375 79.1931V79Z" fill="#00F397"/>
<path d="M49.375 83.9375H44.4375V66.6503C44.4375 65.2713 45.5237 64.1875 46.9062 64.1875C48.2888 64.1875 49.375 65.2713 49.375 66.6503V83.9375Z" fill="#D3D3D3"/>
<path d="M49.375 69.125H44.4375V74.0625H49.375V69.125Z" fill="#9B9B9B"/>
<path d="M148.125 121.019C148.125 136.017 135.967 148.175 120.969 148.175C105.971 148.175 93.8125 136.017 93.8125 121.019C93.8125 106.021 105.971 93.8624 120.969 93.8624C135.967 93.8624 148.125 106.021 148.125 121.019ZM54.4112 130.894C54.4112 140.438 46.6743 148.175 37.1301 148.175C27.5859 148.175 19.8488 140.438 19.8488 130.894C19.8488 121.349 27.5859 113.612 37.1301 113.612C46.6743 113.612 54.4112 121.349 54.4112 130.894Z" fill="#321B41"/>
<path d="M133.312 120.969C133.312 127.786 127.786 133.312 120.969 133.312C114.152 133.312 108.625 127.786 108.625 120.969C108.625 114.152 114.152 108.625 120.969 108.625C127.786 108.625 133.312 114.152 133.312 120.969ZM44.4375 130.844C44.4375 134.934 41.1216 138.25 37.0312 138.25C32.9409 138.25 29.625 134.934 29.625 130.844C29.625 126.754 32.9409 123.438 37.0312 123.438C41.1216 123.438 44.4375 126.754 44.4375 130.844Z" fill="#D3D3D3"/>
<path d="M77.42 44.4375L54.3125 79H123.438V44.4375H77.42Z" fill="#26C9FC"/>
<path d="M88.875 44.4375H83.9375V79H88.875V44.4375ZM128.375 44.4375H123.438V79H128.375V44.4375ZM118.451 88.8755C102.094 88.8755 88.875 102.133 88.875 118.5C88.875 119.863 87.77 120.969 86.4063 120.969C85.043 120.969 83.9375 119.863 83.9375 118.5C83.9375 99.4156 99.3568 83.938 118.451 83.938H145.706C147.069 83.938 148.174 85.0435 148.174 86.4067C148.174 87.7705 147.069 88.8755 145.706 88.8755H118.451ZM27.2551 106.206C27.2551 104.843 28.3604 103.737 29.7238 103.737H42.0182C54.2937 103.737 64.2369 113.681 64.2369 125.956C64.2369 127.32 63.1319 128.425 61.7681 128.425C60.4049 128.425 59.2994 127.32 59.2994 125.956C59.2994 116.408 51.5668 108.675 42.0182 108.675H29.7238C28.3604 108.675 27.2551 107.57 27.2551 106.206Z" fill="#008463"/>
<path d="M17.3177 98.7505H9.875V93.813H17.3177C18.6798 93.813 19.75 94.8992 19.75 96.2817C19.75 97.6642 18.6798 98.7505 17.3177 98.7505ZM17.3177 108.625H9.875V103.687H17.3177C18.6798 103.687 19.75 104.774 19.75 106.156C19.75 107.489 18.6798 108.625 17.3177 108.625ZM9.875 118.5H17.3177C18.6798 118.5 19.75 117.364 19.75 116.031C19.75 114.649 18.6798 113.562 17.3177 113.562H9.875V118.5Z" fill="#321B41"/>
</svg>
