<svg width="94" height="82" viewBox="0 0 94 82" fill="none" xmlns="http://www.w3.org/2000/svg">
<g clip-path="url(#clip0_7_133)">
<path d="M90.4116 22.6376C90.4116 22.6376 92.1315 12.9439 84.9394 17.3217C84.9394 17.3217 84.314 7.47166 78.2164 14.3511C78.2164 14.3511 74.933 8.25345 71.337 13.882C66.4902 21.3868 63.2069 33.2694 66.3338 52.9694L72.2751 49.0606C76.4966 36.7091 91.6624 35.302 93.6949 28.5788C95.1022 23.8884 90.4116 22.6376 90.4116 22.6376ZM31.468 12.1623L15.9892 17.7908C19.429 -0.971105 41.9433 0.279671 41.9433 0.279671C41.9433 0.279671 31.3115 5.28292 31.468 12.1623Z" fill="#42ADE2"/>
<path d="M33.9695 15.6019L17.5528 17.7908C25.0576 0.279678 46.7902 6.37722 46.7902 6.37722C46.7902 6.37722 35.3766 8.87892 33.9695 15.6019Z" fill="#42ADE2"/>
<path d="M0.0416718 29.9861L8.48459 27.7972V33.4257C8.48459 33.2694 3.32501 32.4876 0.0416718 29.9861ZM8.48459 27.6408L0.0416718 23.4194C5.67023 19.0416 12.0806 20.4487 12.0806 20.4487L8.48459 27.6408Z" fill="#FFD93B"/>
<path d="M49.7607 67.5099H46.4774V79.8615C46.0084 80.0178 43.1941 79.7051 41.9433 79.7051C39.1291 79.7051 36.7839 81.7377 36.7839 81.7377H49.7607V67.5099ZM36.0021 67.5099H32.7187V79.8615C32.2496 80.0178 29.4354 79.7051 28.1846 79.7051C25.3703 79.7051 23.025 81.7377 23.025 81.7377H36.0021V67.5099Z" fill="#E08828"/>
<path d="M81.3434 41.2432C87.4411 41.2432 74.933 68.6043 44.914 68.6043C24.5885 68.6043 7.54646 60.4742 7.54646 34.9892C7.54646 19.1979 17.5528 6.37722 38.0346 11.5368C58.829 17.009 48.1973 41.2432 81.3434 41.2432Z" fill="#42ADE2"/>
<path d="M55.7021 65.4773C31.3116 65.4773 33.8132 46.7154 12.0806 47.9662C20.0544 72.6695 55.7021 65.4773 55.7021 65.4773Z" fill="white"/>
<path d="M58.0473 30.2987C42.4124 14.9765 26.4647 39.9924 45.6958 49.9988C64.614 59.6924 77.5911 42.494 77.5911 42.494C77.5911 42.494 68.0537 40.1487 58.0473 30.2987Z" fill="#297B9D"/>
<path d="M16.6147 23.5757C16.6089 26.5846 19.8624 28.4716 22.4712 26.9723C23.6866 26.2737 24.435 24.9776 24.4321 23.5757C24.4381 20.5667 21.1844 18.6798 18.5757 20.1792C17.3602 20.8777 16.612 22.1738 16.6147 23.5757Z" fill="#3E4347"/>
</g>
<defs>
<clipPath id="clip0_7_133">
<rect width="94" height="82" fill="white"/>
</clipPath>
</defs>
</svg>
