<svg width="86" height="87" viewBox="0 0 86 87" fill="none" xmlns="http://www.w3.org/2000/svg">
<g clip-path="url(#clip0_7_74)">
<path d="M83.6783 0.824219C86.2119 19.8861 85.7896 35.2493 81.9892 45.0648L47.0819 18.8903C53.9789 11.6354 68.0544 2.95801 83.6783 0.824219Z" fill="#DADEE0"/>
<path d="M79.1741 43.7845L64.817 24.8649C64.817 24.8649 67.4914 14.4805 81.1447 7.22559C85.2266 23.7269 79.1741 43.7845 79.1741 43.7845Z" fill="#F7A4A4"/>
<path d="M73.6846 39.5169L64.817 27.8522C64.817 27.8522 68.4767 20.7396 76.922 16.1875C71.9956 26.8564 73.6846 39.5169 73.6846 39.5169Z" fill="#F78D8D"/>
<path d="M2.32175 0.824219C-0.211848 19.8861 0.210418 35.2493 4.01081 45.0648L38.9181 18.748C32.0211 11.6354 17.9456 2.95801 2.32175 0.824219Z" fill="#DADEE0"/>
<path d="M6.82591 43.7845L21.3237 24.8649C21.3237 24.8649 18.6493 14.4805 4.99609 7.22559C0.773434 23.7269 6.82591 43.7845 6.82591 43.7845Z" fill="#F7A4A4"/>
<path d="M12.3154 39.5169L21.3237 27.8522C21.3237 27.8522 17.6641 20.7396 9.21875 16.1875C14.0044 26.8564 12.3154 39.5169 12.3154 39.5169Z" fill="#F78D8D"/>
<path d="M79.8779 70.2435C81.0039 68.9632 81.8484 67.9675 82.2707 67.1139C84.5228 63.4154 85.2266 59.5745 85.2266 59.5745L82.4115 60.1436C82.4115 60.1436 85.6488 56.5872 84.8043 49.0479L81.9892 52.0352C81.9892 52.0352 84.6635 44.3535 82.4115 37.2409L79.3148 39.5169C79.3148 39.5169 80.3001 36.6719 79.4556 34.6803L78.1888 35.6761C78.1888 35.6761 80.5816 28.9902 78.4703 26.2874C77.2035 30.2705 75.796 30.2705 75.796 30.2705C75.796 30.2705 77.485 27.2832 76.2182 26.0029C74.8107 28.279 73.6846 26.8564 73.6846 26.1452C73.8254 25.2917 73.4031 24.0114 77.485 23.3001C74.2477 21.3086 70.3065 22.7311 70.3065 22.7311C70.3065 22.7311 70.4473 20.5973 73.2624 20.7396C70.588 18.4635 66.9284 19.8861 66.9284 19.8861C61.1574 15.4762 53.4159 12.9157 42.8592 12.9157C32.4434 12.9157 24.7018 15.4762 18.7901 19.8861C18.7901 19.8861 15.1305 18.6058 12.4561 20.7396C15.2712 20.5973 15.412 22.7311 15.412 22.7311C15.412 22.7311 11.6116 21.3086 8.23346 23.3001C12.3154 23.8691 12.0339 25.1494 12.0339 26.1452C12.0339 26.8564 10.9078 28.279 9.50026 26.0029C8.09271 27.2832 9.92253 30.2705 9.92253 30.2705C9.92253 30.2705 8.51497 30.2705 7.24818 26.2874C5.13685 29.1325 7.52969 35.6761 7.52969 35.6761L6.26289 34.6803C5.41836 36.6719 6.40365 39.5169 6.40365 39.5169L3.58854 37.2409C1.1957 44.3535 4.01081 52.0352 4.01081 52.0352L1.33646 49.0479C0.351172 56.5872 3.58854 60.1436 3.58854 60.1436L0.773438 59.5745C0.773438 59.5745 1.47721 63.4154 3.7293 67.1139C4.01081 67.8252 4.85534 68.9632 6.12214 70.2435L6.26289 70.3857C12.0339 76.2181 26.2501 86.1758 43 86.1758C59.7499 86.1758 73.9662 76.2181 79.7371 70.3857C79.7371 70.2435 79.8779 70.2435 79.8779 70.2435Z" fill="#DADEE0"/>
<path d="M51.023 13.3424C48.4894 12.9157 45.8151 12.7734 43 12.7734C40.1849 12.7734 37.5105 12.9157 34.977 13.3424C35.9622 18.8903 38.9181 22.7311 43 29.8437C47.2227 22.5889 50.0378 18.748 51.023 13.3424ZM63.8318 17.61C61.1574 16.0452 58.0608 14.9072 54.6827 14.0537C55.5272 17.3255 57.357 19.6016 59.7499 23.8691C61.5797 20.8818 62.8465 20.0283 63.8318 17.61ZM31.3173 14.0537C27.7984 14.9072 24.8426 16.0452 22.1682 17.61C23.1535 20.1706 24.5611 20.8818 26.2501 23.8691C28.7837 19.4593 30.4728 17.1833 31.3173 14.0537Z" fill="#94989B"/>
<path d="M48.6302 52.0352C47.5042 50.7549 43.9853 50.6126 43 50.6126C42.0147 50.6126 38.4958 50.7549 37.3698 52.0352C36.5253 53.0309 37.229 55.307 39.3404 57.4408C40.7479 58.721 42.0147 59.1478 43 59.1478C43.9853 59.1478 45.3928 58.721 46.6596 57.4408C48.9117 55.4492 49.4747 53.0309 48.6302 52.0352Z" fill="#4C5359"/>
<path d="M32.1619 41.793C32.1619 41.793 31.4581 35.2493 25.8279 33.2578C19.4939 30.8395 15.1305 36.6719 13.8637 39.9437C12.1746 44.7803 14.2859 50.0436 14.9897 51.3239C15.412 52.1774 20.1977 55.876 30.7543 52.3197C30.7543 52.3197 33.4287 46.9141 32.1619 41.793Z" fill="white"/>
<path d="M32.1618 41.793C31.5988 39.5169 30.6135 37.5254 28.9245 35.9606C28.2207 35.2493 27.2354 34.5381 26.2501 34.2536C25.8279 34.1113 25.2648 33.8268 24.7018 33.8268C24.4203 33.6846 23.8573 33.5423 23.2943 33.5423C21.1829 33.5423 19.3531 34.3958 17.8048 35.8184C16.2565 37.2409 15.1305 39.0902 14.5674 41.0817C14.0044 43.0732 14.1452 45.3493 14.5674 47.3408C14.849 48.3366 15.1305 49.4746 15.5527 50.4704L15.6935 50.7549L15.8342 50.8971C15.975 51.0394 16.1157 51.1816 16.3973 51.3239C16.8195 51.6084 17.2418 51.8929 17.6641 52.0352C19.6346 52.8887 21.746 53.1732 23.998 53.1732C26.2501 53.1732 28.5022 52.7464 30.7543 52.1774C28.643 53.1732 26.3909 53.7422 24.1388 54.1689C21.8867 54.4534 19.3531 54.4534 17.101 53.5999C16.538 53.4577 15.975 53.1732 15.412 52.7464C15.1305 52.6042 14.849 52.3197 14.5674 52.1774C14.4267 52.1774 14.4267 52.0352 14.2859 51.8929L14.1452 51.7506L14.0044 51.6084L13.7229 51.1816C13.1599 50.0436 12.7376 48.9056 12.4561 47.7676C11.8931 45.4915 11.7523 42.931 12.3154 40.5127C13.0191 38.0944 14.4267 35.9606 16.2565 34.2536C18.0863 32.6888 20.6199 31.5508 23.1535 31.8353C23.7165 31.9775 24.4203 31.9775 24.9833 32.262C25.5463 32.4043 26.1094 32.6888 26.6724 32.9733C27.7984 33.5423 28.643 34.3958 29.4875 35.2493C31.1766 37.2409 32.0211 39.5169 32.1618 41.793Z" fill="#B2B6B8"/>
<path d="M53.8382 41.793C53.8382 41.793 54.5419 35.2493 60.1721 33.2578C66.5061 30.8395 70.8695 36.6719 72.1363 39.9437C73.8254 44.7803 71.7141 50.0436 71.0103 51.3239C70.588 52.1774 65.8023 55.876 55.2457 52.3197C55.2457 52.3197 52.5714 46.9141 53.8382 41.793Z" fill="white"/>
<path d="M53.8382 41.793C53.9789 39.5169 54.8234 37.2409 56.231 35.2493C56.9348 34.2536 57.9201 33.5423 59.0461 32.9733C59.6091 32.6888 60.1721 32.4043 60.7352 32.262C61.2982 32.1198 62.002 31.9775 62.565 31.8353C65.0986 31.5508 67.6322 32.6888 69.462 34.2536C71.2918 35.9606 72.6994 37.9521 73.4031 40.5127C73.9661 42.931 73.8254 45.4915 73.2624 47.9098C72.9809 49.0478 72.5586 50.1859 71.9956 51.3239L71.7141 51.7506L71.5733 51.8929V52.0352L71.2918 52.3197C71.0103 52.6042 70.7288 52.7464 70.4473 52.8887L68.7582 53.7422C66.3654 54.5957 63.9725 54.5957 61.7204 54.3112C59.4684 53.8844 57.2163 53.3154 55.1049 52.3197C57.357 52.7464 59.6091 53.1732 61.8612 53.3154C64.1133 53.3154 66.3654 53.0309 68.1952 52.1774C68.6174 52.0352 69.1805 51.7506 69.462 51.4661C69.6027 51.3239 69.8842 51.1816 70.025 51.0394L70.1658 50.8971L70.3065 50.6126C70.7288 49.6169 71.0103 48.6211 71.2918 47.4831C71.7141 45.3493 71.8548 43.2155 71.2918 41.224C70.7288 39.2324 69.6027 37.3831 68.0544 35.9606C66.5061 34.5381 64.6763 33.6846 62.565 33.6846C62.002 33.6846 61.5797 33.8268 61.0167 33.8268C60.4536 33.9691 60.0314 34.1113 59.4684 34.2536C58.4831 34.6803 57.6385 35.2493 56.794 35.9606C55.3865 37.5254 54.4012 39.6592 53.8382 41.793Z" fill="#B2B6B8"/>
<path d="M54.2604 44.2113C54.2604 45.909 54.8536 47.5372 55.9095 48.7377C56.9653 49.9382 58.3974 50.6126 59.8906 50.6126C61.3839 50.6126 62.8159 49.9382 63.8718 48.7377C64.9277 47.5372 65.5208 45.909 65.5208 44.2113C65.5208 42.5135 64.9277 40.8853 63.8718 39.6848C62.8159 38.4843 61.3839 37.8099 59.8906 37.8099C58.3974 37.8099 56.9653 38.4843 55.9095 39.6848C54.8536 40.8853 54.2604 42.5135 54.2604 44.2113Z" fill="#4C5359"/>
<path d="M20.4792 44.2113C20.4792 45.909 21.0724 47.5372 22.1282 48.7377C23.1841 49.9382 24.6162 50.6126 26.1094 50.6126C27.6026 50.6126 29.0347 49.9382 30.0905 48.7377C31.1464 47.5372 31.7396 45.909 31.7396 44.2113C31.7396 42.5135 31.1464 40.8853 30.0905 39.6848C29.0347 38.4843 27.6026 37.8099 26.1094 37.8099C24.6162 37.8099 23.1841 38.4843 22.1282 39.6848C21.0724 40.8853 20.4792 42.5135 20.4792 44.2113Z" fill="#4C5359"/>
<path d="M61.2982 64.4111C61.2982 63.5576 60.7352 62.4196 59.3276 62.1351C55.668 61.2816 50.0378 60.5703 43 60.5703C35.9622 60.5703 30.332 61.2816 26.6724 61.9928C25.2648 62.2773 24.7018 63.4154 24.7018 64.2689C24.7018 72.3773 30.7543 80.4857 43 80.4857C55.2457 80.4857 61.2982 72.3773 61.2982 64.4111Z" fill="#4C5359"/>
<path d="M33.8509 75.6491C36.5253 76.9294 39.4811 77.6406 43 77.6406C46.5189 77.6406 49.4747 76.9294 52.1491 75.6491C49.6155 74.2266 46.5189 73.373 43 73.373C39.4811 73.373 36.3845 74.2266 33.8509 75.6491Z" fill="#FF717F"/>
</g>
<defs>
<clipPath id="clip0_7_74">
<rect width="86" height="87" fill="white"/>
</clipPath>
</defs>
</svg>
