<svg width="108" height="108" viewBox="0 0 108 108" fill="none" xmlns="http://www.w3.org/2000/svg">
<path d="M63.0197 22.5197C63.0197 22.5197 67.8206 10.4119 73.3556 11.475C79.5319 12.6647 76.0894 27.27 76.0894 27.27L63.0197 22.5197Z" fill="#FFB903"/>
<path d="M46.634 20.4947C46.634 20.4947 40.8122 8.96906 35.9437 10.6397C31.0753 12.3103 34.6359 27.5062 34.6359 27.5062L46.634 20.4947Z" fill="#FFB903"/>
<path d="M40.4494 21.33C40.4494 21.33 42.1116 19.3134 56.0081 19.7859C69.9047 20.2584 77.625 25.1353 77.625 25.1353C77.625 25.1353 82.4175 21.465 87.0919 19.8703C94.0359 17.5078 103.376 21.4819 104.11 23.0006C104.676 24.1566 101.495 34.4503 97.3434 37.9687C92.7113 41.8922 87.7247 41.6475 87.7247 41.6475C87.7247 41.6475 86.6278 48.8616 86.4169 54.2362C86.2988 57.3244 86.7206 60.5475 87.2522 62.1928C88.3238 65.5172 88.9313 67.8038 89.4628 71.8791C89.91 75.2794 89.9859 78.5784 89.9859 78.5784L34.8722 64.6819L40.4494 21.33Z" fill="#DFDFDF"/>
<path d="M32.7291 63.7369C32.7291 63.7369 41.3606 61.4419 43.6556 60.21C45.6131 59.1637 56.6072 54.3459 57.4341 39.5044C58.2609 24.6628 47.7816 20.3428 46.3556 19.98C44.9297 19.6256 39.7828 21.0094 36.7706 22.5113C35.4881 23.1525 32.7291 25.0087 32.7291 25.0087C32.7291 25.0087 27.2616 19.305 18.7144 18.4781C10.1672 17.6428 3.74626 22.1569 3.62813 22.7559C3.51001 23.3466 6.83439 35.0156 12.9178 39.0741C14.6897 40.2553 16.9678 40.7869 18.5288 40.9978C22.6125 41.5547 24.1734 41.0484 24.1734 41.0484C24.1734 41.0484 23.5828 47.3428 23.4647 50.5491C23.3466 53.7553 23.2791 58.2862 22.9078 61.56C22.6716 63.6609 19.8197 69.2381 19.7438 73.3556C19.6931 76.0894 32.7291 63.7369 32.7291 63.7369Z" fill="#BC8954"/>
<path d="M55.4681 62.7834C65.7281 63.0281 68.1159 61.2394 75.1106 61.7119C82.1053 62.1844 91.0153 69.5503 90.1716 80.1225C89.3278 90.6947 80.5359 98.2969 71.1366 100.432C61.7372 102.566 40.77 102.811 30.8897 97.4616C20.9672 92.0953 18.8409 84.8728 18.7228 78.0975C18.6047 71.3222 23.6588 61.5937 34.6191 60.4125C45.5794 59.2312 45.3431 62.5472 55.4681 62.7834Z" fill="#FFD3B0"/>
<path d="M82.62 33.4462C80.865 30.375 82.62 25.5234 88.1634 24.2578C93.7069 22.9922 99.2503 25.5234 99.2503 25.5234C99.2503 25.5234 97.5544 32.0203 93.7069 34.5516C90.4584 36.6947 85.1512 37.8759 82.62 33.4462Z" fill="#FFD3B0"/>
<path d="M21.1697 24.5784C16.2337 23.0428 9.81281 25.0425 9.81281 25.0425C9.81281 25.0425 10.0153 27.8944 12.0403 30.6534C13.2553 32.3072 15.0694 34.29 17.9381 35.235C24.6712 37.4541 27.1856 33.4463 27.7341 31.6238C28.2994 29.8013 27.27 26.4769 21.1697 24.5784Z" fill="#FFD3B0"/>
<path d="M40.9531 54.0563C42.1425 54.2277 43.37 53.7893 44.3656 52.8377C45.3611 51.886 46.0433 50.499 46.2618 48.9818C46.4804 47.4646 46.2176 45.9415 45.5311 44.7475C44.8446 43.5535 43.7908 42.7864 42.6014 42.6151C41.412 42.4437 40.1844 42.8821 39.1888 43.8338C38.1933 44.7854 37.5111 46.1724 37.2926 47.6896C37.074 49.2068 37.3368 50.73 38.0233 51.9239C38.7098 53.1179 39.7637 53.885 40.9531 54.0563Z" fill="#0A0A0A"/>
<path d="M66.0939 49.4112C66.3301 50.928 67.0282 52.3093 68.0348 53.2512C69.0413 54.1931 70.2739 54.6184 71.4613 54.4335C72.6486 54.2487 73.6936 53.4689 74.3662 52.2656C75.0389 51.0623 75.2841 49.5342 75.048 48.0174C74.8119 46.5005 74.1137 45.1192 73.1072 44.1774C72.1006 43.2355 70.868 42.8102 69.6807 42.995C68.4933 43.1799 67.4483 43.9597 66.7757 45.163C66.1031 46.3662 65.8578 47.8944 66.0939 49.4112Z" fill="#0A0A0A"/>
<path d="M61.7119 83.97C59.1806 81.9872 60.5981 76.7559 64.8 73.8366C69.2381 70.7484 73.8534 71.8791 74.6972 73.7606C75.8025 76.2159 74.5369 77.7178 73.1953 78.7472C71.9212 79.7175 70.1831 79.5403 69.0778 80.1731C67.9725 80.8059 67.4916 82.4681 65.9897 83.8181C64.5975 85.0584 62.5556 84.6197 61.7119 83.97Z" fill="#2E2F31"/>
<path d="M34.155 74.1487C34.9481 70.5881 40.6266 70.7231 44.685 73.8281C48.9713 77.1103 49.8319 81.7509 48.0094 83.3287C45.9338 85.1344 43.9256 84.2316 42.6769 83.1516C41.4619 82.1053 41.0316 81.2616 40.0866 80.3925C39.15 79.5319 37.4709 79.2787 35.7328 78.2578C34.1297 77.3212 33.8175 75.6675 34.155 74.1487Z" fill="#2E2F31"/>
</svg>
