<svg width="99" height="77" viewBox="0 0 99 77" fill="none" xmlns="http://www.w3.org/2000/svg">
<g clip-path="url(#clip0_7_94)">
<path d="M49.1396 0.268082C24.9826 -0.354693 17.16 18.3465 16.5621 25.3635C16.0971 30.8194 13.7552 50.7745 25.1321 64.1775C31.0032 71.095 40.4119 74.5413 50.3853 74.3087C60.4417 74.0762 69.5266 72.0749 75.6385 64.0198C85.9274 50.459 84.8313 30.1966 83.4362 23.6445C82.1241 17.5492 77.0336 0.982283 49.1396 0.268082Z" fill="#FFEAC8"/>
<path d="M76.5935 37.1887C77.4488 43.6744 74.6337 49.861 67.218 50.3012C60.4334 50.7081 56.2481 46.3815 55.9159 40.0122C55.5755 33.4851 59.1462 27.4147 64.818 26.7919C70.8054 26.1358 75.7465 30.7031 76.5935 37.1887Z" fill="#D27856"/>
<path d="M11.8869 5.87344C11.8869 5.87344 3.72373 9.07057 1.75564 13.8206C-0.893388 20.2149 0.327319 32.9038 1.75564 37.8282C3.15905 42.6612 6.89593 47.6522 12.6674 47.4943C18.4389 47.3364 23.5045 41.4904 25.2899 33.8588C27.0836 26.2189 27.4739 13.1313 28.0137 10.7896C28.5534 8.44787 29.4918 6.57931 29.4918 6.57931C29.4918 6.57931 22.3253 -0.363026 11.8869 5.87344Z" fill="#D27856"/>
<path d="M80.239 4.86036C80.239 4.86036 91.3086 5.25067 93.9577 6.42154C96.6068 7.59241 99.0232 12.8905 98.7907 19.9824C98.5583 27.0743 98.0931 38.5424 94.5057 42.5035C91.5411 45.7753 85.5454 46.0079 82.1905 41.9554C78.8356 37.9029 76.7346 31.0436 75.9541 26.6009C75.1734 22.1581 73.853 16.395 72.9894 13.8206C72.1341 11.2463 70.0248 6.10598 68.937 4.93504C67.8408 3.77251 70.0248 2.67632 80.239 4.86036Z" fill="#D27856"/>
<path d="M21.0796 2.21132C15.0756 1.82926 5.17697 6.57931 3.15071 11.4871C1.12445 16.395 2.31199 32.3225 4.01436 36.9729C5.80808 41.8807 9.54504 48.0424 16.014 42.7443C22.4831 37.4463 24.1937 24.1179 24.8248 19.8329C25.4476 15.5479 26.303 10.3245 27.2414 9.23668C28.1798 8.14883 29.5001 6.58765 29.5001 6.58765C29.5001 6.58765 28.4871 2.67632 21.0796 2.21132Z" fill="#865B51"/>
<path d="M81.5594 1.19816C87.198 1.58847 93.3265 3.68941 95.5853 8.60557C97.844 13.5134 96.9887 25.131 96.1334 30.6616C95.2781 36.1922 93.2518 41.9637 88.1862 41.3409C83.1206 40.7182 80.5463 33.8588 78.9934 27.3897C77.4322 20.9207 75.7963 14.4517 73.77 9.77644C72.5493 6.95304 68.3141 4.86861 68.3141 4.86861C68.3141 4.86861 70.1826 0.417605 81.5594 1.19816Z" fill="#865B51"/>
<path d="M38.1282 39.8959C37.7961 42.736 36.3345 45.028 33.1623 44.6958C30.9118 44.455 29.4005 41.7727 29.7326 38.9244C30.0648 36.0843 31.053 34.0414 33.7104 34.0913C37.8376 34.166 38.4604 37.0476 38.1282 39.8959Z" fill="#2F2F2F"/>
<path d="M70.7141 39.0987C70.847 41.9554 69.7176 44.3969 66.4208 44.6377C63.5558 44.8453 62.086 42.3624 61.9614 39.5056C61.8285 36.649 63.2486 34.357 65.9806 34.0165C69.5266 33.5598 70.5813 36.2421 70.7141 39.0987Z" fill="#2F2F2F"/>
<path d="M58.5733 53.4983C58.7062 56.355 56.7796 59.0289 50.7756 58.9542C44.9294 58.8795 42.8035 56.5127 42.6706 53.6561C42.5378 50.7994 45.8595 48.2334 50.6178 48.1255C57.1698 47.9594 58.4404 50.6333 58.5733 53.4983Z" fill="#2F2F2F"/>
<path d="M45.3197 65.0329C45.3197 65.0329 46.0255 71.8175 46.7231 73.8437C48.2013 78.1287 54.4294 77.4145 55.5339 73.3787C56.4723 69.949 55.8495 64.0281 55.8495 64.0281L50.3188 63.2475L45.3197 65.0329Z" fill="#E94B8C"/>
<path d="M50.9666 67.2916C49.9949 67.3331 50.0282 68.23 50.0282 70.2895C50.0282 72.3572 50.1445 73.6029 51.0828 73.5614C52.0212 73.5199 51.9049 71.9254 51.9049 70.4473C51.9049 68.9691 51.9797 67.2501 50.9666 67.2916Z" fill="#EF87B2"/>
<path d="M37.8376 58.5971C36.7165 60.2496 38.8922 61.7112 40.686 62.9237C42.4797 64.1278 44.6554 65.963 47.2296 65.9215C50.1112 65.8799 50.8918 63.9367 50.8918 63.9367C50.8918 63.9367 51.8303 66.237 55.9159 65.8052C58.0999 65.5727 60.7905 63.1229 61.6043 62.5748C63.1655 61.5202 65.034 60.1999 64.2118 59.1037C63.2734 57.8497 61.2888 59.5355 59.2625 60.5818C57.2363 61.6364 56.5387 62.143 55.019 62.143C53.4994 62.143 52.4448 61.5202 52.37 58.9874C52.3036 56.9196 52.3285 56.5293 52.3285 56.5293H48.8573C48.8573 56.5293 48.9735 58.7134 48.9735 59.3362C48.9735 60.9721 48.1182 61.678 46.4823 61.7527C44.8463 61.8275 43.0942 60.4656 42.2305 59.959C41.3835 59.4607 38.7345 57.2767 37.8376 58.5971Z" fill="#2F2F30"/>
</g>
<defs>
<clipPath id="clip0_7_94">
<rect width="99" height="77" fill="white"/>
</clipPath>
</defs>
</svg>
