<svg width="99" height="98" viewBox="0 0 99 98" fill="none" xmlns="http://www.w3.org/2000/svg">
<path d="M23.7546 28.1296C39.5671 7.25925 60.6504 2.04166 71.1921 2.04166C73.8275 2.04166 73.8275 4.65045 71.1921 4.65045C68.5567 4.65045 55.3796 9.86804 52.7442 28.1296C50.1088 46.3912 23.7546 28.1296 23.7546 28.1296ZM21.1192 75.088C31.6609 82.9143 55.3796 95.9583 68.5567 95.9583C76.463 95.9583 73.8275 93.3495 71.1921 93.3495C68.5567 93.3495 47.4734 85.5231 44.838 75.088C42.2025 64.6528 21.1192 75.088 21.1192 75.088Z" fill="#FFAC33"/>
<path d="M94.3021 25.5208C90.0564 25.5208 83.6049 33.2742 80.4187 41.9406C76.5315 27.2792 64.1687 13.9247 46.3032 13.9247C24.5004 13.9247 14.5175 40.5762 8.02644 51.6975C6.36876 54.5437 -2.75505 54.395 5.42001 59.7926C-2.75768 65.1876 6.60332 65.6441 8.64049 67.8877C15.5585 75.5054 32.3513 84.0753 46.3032 84.0753C61.2065 84.0753 75.6091 74.1984 80.2026 60.7057C83.3071 69.5991 89.9615 77.6968 94.3021 77.6968C100.124 77.6968 89.0312 63.1345 89.0312 51.6088C89.0312 40.0831 100.124 25.5208 94.3021 25.5208Z" fill="#FFCC4D"/>
<path d="M49.5026 48.9139C49.4526 50.354 50.5937 51.5618 52.0484 51.6062L52.138 51.6088C53.5506 51.6088 54.7207 50.4974 54.7682 49.0861C55.2979 33.2637 69.9429 26.0869 71.5031 25.3669C70.275 23.9973 68.952 22.7111 67.5236 21.5398C62.5558 24.2973 50.0402 32.8176 49.5026 48.9139ZM62.7271 43.2711C62.4425 44.685 63.3675 46.0573 64.7933 46.3416C64.9699 46.3755 65.1412 46.3912 65.3151 46.3912C66.5459 46.3912 67.6475 45.5329 67.8978 44.2937C69.2577 37.5604 73.9488 34.9699 77.3643 33.9733C76.5604 32.3846 75.6644 30.8375 74.655 29.361C69.7084 31.1636 64.3558 35.2203 62.7271 43.2711Z" fill="#F4900C"/>
<path d="M36.3229 54.2176C36.3229 55.6603 37.5036 56.8264 38.9583 56.8264C40.4131 56.8264 41.5937 55.6603 41.5937 54.2176C41.5937 30.8167 56.9872 21.4928 63.3781 18.631C61.5518 17.5379 59.6253 16.5831 57.567 15.8474C49.2048 20.7441 36.3229 31.9019 36.3229 54.2176Z" fill="#F4900C"/>
<path d="M23.1458 42.478C23.1458 42.9919 23.2481 43.5008 23.4468 43.9755C23.6454 44.4503 23.9366 44.8817 24.3037 45.2451C24.6708 45.6084 25.1066 45.8967 25.5862 46.0933C26.0658 46.29 26.5798 46.3912 27.099 46.3912C27.6181 46.3912 28.1321 46.29 28.6118 46.0933C29.0914 45.8967 29.5272 45.6084 29.8942 45.2451C30.2613 44.8817 30.5525 44.4503 30.7512 43.9755C30.9498 43.5008 31.0521 42.9919 31.0521 42.478C31.0521 41.9641 30.9498 41.4553 30.7512 40.9805C30.5525 40.5057 30.2613 40.0743 29.8942 39.711C29.5272 39.3476 29.0914 39.0593 28.6118 38.8627C28.1321 38.666 27.6181 38.5648 27.099 38.5648C26.5798 38.5648 26.0658 38.666 25.5862 38.8627C25.1066 39.0593 24.6708 39.3476 24.3037 39.711C23.9366 40.0743 23.6454 40.5057 23.4468 40.9805C23.2481 41.4553 23.1458 41.9641 23.1458 42.478Z" fill="#292F33"/>
</svg>
