<svg width="101" height="75" viewBox="0 0 101 75" fill="none" xmlns="http://www.w3.org/2000/svg">
<g clip-path="url(#clip0_7_167)">
<path d="M50.1259 16.9773C67.2348 17.054 72.8327 27.2955 76.6753 33.6091C80.5095 39.9226 83.9517 50.4027 80.6714 58.0029C77.3911 65.6031 71.4779 74.0723 50.7649 74.4728C30.904 74.8562 22.0598 64.0779 20.2961 56.8015C18.3109 48.5794 19.3844 40.1783 27.0102 30.1753C35.4965 19.0563 41.2563 16.9347 50.1259 16.9773Z" fill="#B0B0B0"/>
<path d="M100.745 19.0563C100.745 29.988 94.4318 40.0079 81.0719 40.3231C70.1232 40.5872 60.998 29.7664 61.5603 19.0563C62.1311 8.14169 70.038 0.660797 80.9953 0.660797C91.9525 0.660797 100.745 8.12463 100.745 19.0563Z" fill="#B0B0B0"/>
<path d="M39.8503 18.8518C39.8503 29.7834 33.1363 39.8801 19.7764 40.2038C8.83621 40.4679 -0.212373 30.8485 0.273258 18.937C0.71635 8.0139 8.76811 1.05276 19.7082 0.541495C30.8529 0.021817 39.8503 7.92017 39.8503 18.8518Z" fill="#B0B0B0"/>
<path d="M68.2999 24.2622C68.2999 24.2622 67.1497 17.3692 73.4718 11.9418C80.271 6.10535 95.6673 11.6095 92.1825 25.0291C89.1407 36.7446 74.9117 33.4472 74.9117 33.4472C74.9117 33.4472 72.6879 30.2179 71.3928 28.4117C69.7995 26.1708 68.2999 24.2622 68.2999 24.2622Z" fill="#FFA8A7"/>
<path d="M33.4175 24.0151C33.4175 24.0151 35.4965 15.1966 26.6182 10.8767C17.7399 6.55693 7.53263 13.5606 9.27079 23.6573C10.7959 32.4844 19.1629 33.396 21.7446 33.396C23.8746 33.396 26.3115 32.7911 26.3115 32.7911C26.3115 32.7911 27.8963 30.6525 29.7367 28.4116C31.5771 26.1708 33.4175 24.0151 33.4175 24.0151Z" fill="#FFA8A7"/>
<path d="M73.5569 52.6351C72.969 52.6351 72.4578 52.2005 72.3811 51.604C72.2874 50.948 72.7475 50.3516 73.4036 50.2579C73.4291 50.2579 76.1897 49.8745 80.5437 49.3718C84.6163 48.9031 86.9339 48.5026 86.9595 48.5026C87.607 48.3919 88.229 48.8264 88.3398 49.474C88.4506 50.1215 88.016 50.7435 87.3685 50.8543C87.2747 50.8714 84.9657 51.2633 80.8248 51.7404C76.4965 52.2431 73.7614 52.6095 73.7359 52.618C73.6677 52.6265 73.6081 52.6351 73.5569 52.6351Z" fill="#5D6265"/>
<path d="M86.9169 57.9943C86.8487 57.9943 86.7805 57.9858 86.7123 57.9773C86.6868 57.9688 83.9262 57.5087 79.9642 57.2701C75.9512 57.0315 73.4632 56.9549 73.4376 56.9549C72.7816 56.9293 72.2618 56.384 72.2874 55.7279C72.3044 55.0719 72.8667 54.5606 73.5143 54.5777C73.5399 54.5777 76.0534 54.6629 80.1006 54.9015C84.1989 55.14 86.9935 55.6172 87.1128 55.6342C87.7603 55.745 88.195 56.3585 88.0842 57.0145C87.9904 57.5769 87.4877 57.9943 86.9169 57.9943Z" fill="#5D6265"/>
<path d="M84.5908 64.6317C84.463 64.6317 84.3352 64.6147 84.1989 64.5636C84.1989 64.5636 81.6428 63.6859 77.9534 62.3994C74.3749 61.1554 72.543 60.6698 72.5259 60.6698C71.8869 60.4994 71.5035 59.8518 71.674 59.2128C71.8444 58.5738 72.4919 58.1904 73.1309 58.3607C73.2076 58.3778 75.0565 58.8634 78.7373 60.15C82.4096 61.4281 84.9742 62.3056 84.9742 62.3056C85.5962 62.5186 85.9285 63.2003 85.7155 63.8223C85.5536 64.3165 85.0935 64.6317 84.5908 64.6317Z" fill="#5D6265"/>
<path d="M28.5353 53.5893C28.4416 53.5893 28.3479 53.5808 28.2626 53.5552C28.2286 53.5467 25.1953 52.831 21.0374 52.0471C16.8624 51.2632 13.8973 50.7776 13.8718 50.769C13.2242 50.6668 12.7812 50.0533 12.8834 49.3973C12.9857 48.7498 13.5991 48.2982 14.2552 48.4089C14.2892 48.4175 17.2799 48.9031 21.4805 49.6955C25.698 50.4879 28.7824 51.2206 28.8079 51.2292C29.447 51.3825 29.8475 52.0216 29.694 52.6606C29.5663 53.2229 29.0806 53.5893 28.5353 53.5893Z" fill="#5D6265"/>
<path d="M13.8207 57.8325C13.2243 57.8325 12.7045 57.3809 12.6363 56.7759C12.5597 56.1199 13.0282 55.5319 13.6843 55.4553C13.8036 55.4382 16.5727 55.1315 20.4921 54.9696C24.3773 54.8077 28.3905 54.7311 28.4331 54.7311H28.4587C29.1062 54.7311 29.6345 55.2508 29.6515 55.8984C29.6685 56.5544 29.1402 57.0997 28.4842 57.1168C28.4416 57.1168 24.4541 57.2019 20.5944 57.3553C16.7687 57.5087 13.9911 57.8239 13.9655 57.8325H13.8207Z" fill="#5D6265"/>
<path d="M16.6238 64.6317C16.1637 64.6317 15.7207 64.3591 15.5247 63.916C15.2606 63.3111 15.5418 62.6124 16.1467 62.3483C16.2234 62.3142 18.0894 61.5048 21.5571 60.4652C24.9738 59.4343 28.5949 58.463 28.6291 58.4545C29.2681 58.2841 29.9156 58.6589 30.086 59.298C30.2564 59.937 29.8815 60.5845 29.2425 60.7549C29.2084 60.7635 25.6214 61.7178 22.2473 62.7402C18.9329 63.7456 17.118 64.5209 17.101 64.5295C16.9476 64.5977 16.7857 64.6317 16.6238 64.6317Z" fill="#5D6265"/>
<path d="M69.6205 46.0743C69.9614 49.1417 68.7344 51.0673 66.7832 51.2974C64.2612 51.5956 62.702 49.7978 62.4038 46.6196C62.1566 44.0039 63.6392 41.9079 65.5989 41.7034C67.5501 41.5075 69.2968 43.1603 69.6205 46.0743Z" fill="#2F2F2F"/>
<path d="M39.2539 46.3981C39.2454 49.4229 37.9333 51.1781 35.8969 51.1781C33.017 51.1781 31.6367 49.1502 31.6963 46.0232C31.7475 43.4501 33.5793 41.6779 35.6158 41.6949C37.6521 41.7205 39.2625 43.5182 39.2539 46.3981Z" fill="#2F2F2F"/>
<path d="M45.968 61.2321C45.968 61.2321 46.0191 67.8013 49.0609 67.9973C50.4582 68.091 50.9779 67.0345 50.9779 67.0345C50.9779 67.0345 51.7278 68.0057 52.8865 68.0654C55.2893 68.1847 55.7238 62.9447 55.7238 61.4281C55.7238 59.9115 50.6031 59.2298 50.6031 59.2298L45.968 61.2321Z" fill="white"/>
<path d="M50.8075 47.0031C47.9703 47.0031 46.5815 49.4825 46.607 52.4817C46.6496 56.3585 49.2057 56.6396 49.1291 57.5598C49.0524 58.48 48.0129 59.1872 46.3685 59.1616C44.1276 59.1191 43.6931 57.4405 42.6109 57.9262C41.5715 58.3863 42.0913 59.6047 42.6877 60.1671C43.6589 61.0702 44.5792 61.7774 46.5218 61.8882C49.3591 62.0501 50.3986 60.5675 51.0035 60.5249C51.5999 60.4823 52.6394 61.6922 55.6386 61.8029C58.953 61.9222 59.9158 60.1245 60.2737 59.6047C60.6315 59.0849 60.6571 58.3437 60.2737 57.9688C59.5921 57.2872 58.8764 57.6109 58.2714 58.1307C57.675 58.6504 56.4736 59.0509 55.7153 59.0935C54.957 59.1361 52.5031 58.4545 52.5542 57.5342C52.6309 56.2136 55.0762 56.4522 55.0762 52.1749C55.0848 48.6816 53.287 47.0031 50.8075 47.0031Z" fill="#2F2F2F"/>
</g>
<defs>
<clipPath id="clip0_7_167">
<rect width="101" height="75" fill="white"/>
</clipPath>
</defs>
</svg>
