<svg width="113" height="98" viewBox="0 0 113 98" fill="none" xmlns="http://www.w3.org/2000/svg">
<g clip-path="url(#clip0_7_221)">
<path d="M31.9174 8.39557C31.9174 8.39557 40.9754 3.72983 56.307 3.72983C71.6387 3.72983 82.265 7.53049 82.265 7.53049C82.265 7.53049 84.0097 3.38925 86.6176 1.99965C89.2255 0.610052 93.7637 -0.0709223 97.5966 1.48433C101.43 3.03958 111.007 13.1441 111.536 14.0092C112.056 14.8742 112.427 16.1258 112.251 16.4663C112.074 16.816 102.905 31.301 102.905 31.301C102.905 31.301 104.297 34.6507 105.652 39.3348C106.228 41.3411 110.135 51.7492 108.047 64.1912C105.958 76.6332 96.9377 89.9218 80.8729 94.2471C64.8452 98.5632 39.9359 99.4282 24.2609 91.6519C9.0592 84.1242 4.0477 72.4828 3.3516 60.3906C2.6555 48.2983 7.52793 38.1754 7.52793 38.1754L13.4489 30.1691C13.4489 30.1691 1.01285 17.9663 0.669481 16.9356C0.316843 15.8957 1.78317 13.9355 6.65551 9.78517C11.5279 5.63484 16.0383 1.94443 18.9617 0.996567C21.9686 0.0211345 25.3003 0.453679 27.3885 2.3586C29.4767 4.25434 31.9174 8.39557 31.9174 8.39557Z" fill="#FFD3B0"/>
<path d="M83.9169 9.86795C82.1814 10.871 84.1953 14.5705 85.1327 16.7791C86.7847 20.6626 89.4111 28.3561 93.7544 33.1875C98.8031 38.8011 105.253 38.1937 105.253 38.1937C105.253 38.1937 103.945 33.7857 103.425 32.755C103.508 31.9819 107.174 26.2763 108.214 24.2886C109.262 22.3008 111.434 18.9326 111.87 17.2025C112.306 15.4724 111.258 15.9969 110.654 16.2546C110.042 16.5123 97.7637 23.7731 97.7637 23.7731C97.7637 23.7731 94.8031 24.8959 93.8472 23.856C92.8913 22.8161 91.1466 18.0676 89.838 14.9571C89.0955 13.1901 87.0537 8.055 83.9169 9.86795Z" fill="#FFA5A8"/>
<path d="M93.7636 24.3069C94.2834 25.8622 96.4458 26.0555 98.5989 25.5401C101.754 24.7855 103.722 22.6689 105.717 21.1964C108.464 19.1903 111.202 18.6013 111.861 17.8927C112.511 17.1841 112.78 15.1687 111.276 15.5644C109.773 15.951 107.879 16.1442 104.808 18.1595C102.163 19.8896 99.9631 21.7578 98.0791 22.6965C96.3715 23.5339 93.2439 22.7701 93.7636 24.3069Z" fill="#FD7E89"/>
<path d="M20.3352 23.2118C20.66 22.8253 23.9918 14.9202 24.7157 13.365C25.4302 11.8097 27.4628 7.53049 29.7457 9.41703C32.0287 11.3036 29.1611 18.6197 26.2191 23.7364C23.2771 28.8531 20.0104 33.5832 17.7923 35.5894C16.5208 36.7397 14.1357 38.3134 11.4536 38.5711C9.8852 38.7275 7.20308 38.7643 7.20308 38.7643C7.20308 38.7643 7.91772 36.6937 8.77151 34.9452C9.0592 34.3471 9.75521 32.939 10.0151 32.3501C10.0151 31.8991 7.99193 29.0463 6.61835 26.9757C5.85739 25.8253 1.12422 18.1595 1.05927 17.2485C0.994317 16.3375 2.17296 16.7332 3.40728 16.9908C4.6416 17.2484 12.8828 21.27 12.8828 21.27L20.3352 23.2118Z" fill="#FFA5A8"/>
<path d="M11.5093 22.6873C14.2656 24.1597 15.7042 25.218 18.2378 24.8867C20.2609 24.629 21.0498 23.5891 20.7157 22.8161C20.3908 22.0431 19.0823 22.3008 18.1635 22.1075C16.0475 21.6565 14.3399 20.3682 12.6787 19.5124C10.3956 18.3436 7.9734 16.7884 5.2356 16.273C2.92465 15.8405 0.140518 15.8865 0.79011 17.3773C1.43979 18.8682 3.57433 18.6657 5.62539 19.6412C7.65782 20.6167 9.8109 21.7854 11.5093 22.6873Z" fill="#FD7C88"/>
<path d="M31.11 68.1024C29.6158 69.6944 30.8501 71.7374 33.0683 73.3479C35.7504 75.2897 40.6505 79.0444 55.082 79.0444C70.3021 79.0444 75.4344 74.2497 77.1977 72.9522C78.7847 71.7835 80.6965 69.7773 79.193 68.1576C77.6896 66.5379 73.8382 69.3908 72.7894 69.9705C71.7407 70.5503 63.7129 74.7007 55.4161 74.5719C48.6876 74.4706 41.6992 72.2436 39.611 71.3969C35.7504 69.8509 32.8733 66.2251 31.11 68.1024Z" fill="#312F2C"/>
<path d="M55.9358 50.737C48.6876 50.3873 37.9684 55.5315 38.0984 64.7986C38.2283 74.0657 47.1098 75.7314 55.6017 75.9431C63.5737 76.1363 73.04 72.8326 72.975 64.5409C72.9286 57.0132 66.5807 51.2615 55.9358 50.737Z" fill="#FD7E84"/>
<path d="M86.0515 50.4149C86.0515 54.28 83.9633 57.8598 80.4645 57.7954C77.1606 57.731 74.8126 54.6665 74.8126 50.8014C74.8126 46.9362 77.4854 43.8074 80.4645 43.8074C83.4436 43.8074 86.0515 46.5498 86.0515 50.4149Z" fill="#2C2F31"/>
<path d="M36.7341 50.6726C36.7341 54.5376 34.7759 57.6022 31.2771 57.6666C27.7133 57.731 25.4953 54.7309 25.4953 50.8658C25.4953 47.0007 28.2701 43.8718 31.2399 43.8718C34.2097 43.8718 36.7341 46.8074 36.7341 50.6726Z" fill="#2C2F31"/>
<path d="M65.6712 63.8783C65.6712 67.7435 64.7338 71.2773 62.4043 71.3233C59.6573 71.3878 59.1376 67.9275 59.1376 64.0716C59.1376 60.2157 60.0564 57.3353 62.4043 57.3997C64.808 57.4641 65.6712 60.0133 65.6712 63.8783Z" fill="#2C2F31"/>
<path d="M52.5297 63.5563C52.5297 67.4214 51.5924 70.9552 49.263 71.0012C46.5159 71.0657 45.9962 67.6055 45.9962 63.7495C45.9962 59.8936 46.915 57.0132 49.263 57.0776C51.6667 57.142 52.5297 59.6911 52.5297 63.5563Z" fill="#2C2F31"/>
</g>
<defs>
<clipPath id="clip0_7_221">
<rect width="113" height="98" fill="white"/>
</clipPath>
</defs>
</svg>
