<svg width="98" height="131" viewBox="0 0 98 131" fill="none" xmlns="http://www.w3.org/2000/svg">
<g clip-path="url(#clip0_7_255)">
<path d="M46.9651 53.5314C46.9651 53.5314 48.3902 53.2246 50.3376 53.2246C52.285 53.2246 54.2213 53.7397 54.2213 53.7397C54.2213 53.7397 58.6162 47.461 59.6279 38.421C60.6396 29.3811 60.6506 19.3987 63.8162 11.575C66.982 3.7622 72.0841 0.97898 76.8816 1.70226C81.6791 2.42554 92.2424 10.808 89.2398 33.1723C87.0858 49.1047 75.5435 56.6872 76.9795 68.1269C78.2088 77.9011 84.029 85.407 86.4766 90.5461C88.9244 95.6852 93.7219 104.528 85.4541 116.362C76.9687 128.492 58.7033 130.969 50.3266 130.76C41.95 130.552 28.0035 129.829 16.7332 120.066C11.631 115.639 8.46526 109.678 8.76995 100.737C9.07454 91.7843 16.2218 82.6348 18.6696 78.1093C21.1173 73.5839 24.0762 70.2965 23.9784 65.7711C23.8804 61.2455 17.5491 48.491 15.8084 39.955C14.0678 31.4191 7.84523 4.16765 30.0052 0.365388C42.1458 -1.71651 39.3936 20.3191 41.95 34.4105C44.5174 48.491 46.9651 53.5314 46.9651 53.5314Z" fill="#B5C2C8"/>
<path d="M65.8506 55.1751C70.659 58.3747 73.89 51.1208 75.0431 48.1842C76.7838 43.7574 80.6565 35.846 80.8633 26.28C81.0264 18.4563 80.5587 11.7832 74.9452 11.9804C69.3318 12.1886 69.5384 21.3382 69.6364 24.4282C69.7887 29.1619 68.6029 35.9884 67.3953 40.7768C65.633 47.7349 61.053 51.9864 65.8506 55.1751Z" fill="#FEACA9"/>
<path d="M29.2002 10.9504C24.3047 10.3368 21.4436 17.6345 22.0528 25.1405C22.662 32.6465 25.1206 44.1627 27.873 49.4115C30.6253 54.6601 32.0613 55.8874 35.4336 54.967C38.8061 54.0465 36.4563 47.976 36.1517 45.916C35.847 43.8559 33.2906 30.5973 33.2906 24.5268C33.2906 18.4562 34.1719 11.575 29.2002 10.9504Z" fill="#FEACA9"/>
<path d="M50.9468 61.4429C55.853 61.4429 53.4706 71.1402 54.6999 76.4876C55.9292 81.8349 60.52 86.5686 64.1209 90.3708C68.6355 95.1483 74.0206 105.306 73.0088 111.585C71.9862 117.863 68.7988 127.166 50.4463 126.958C34.5742 126.783 27.6772 121.918 27.3726 110.423C27.0897 99.6847 34.3458 92.1459 36.9458 89.9872C39.5459 87.8285 43.299 84.0483 44.9852 79.6543C46.6714 75.2603 47.1283 70.7896 47.2806 68.3899C47.4221 66.0012 46.889 61.4429 50.9468 61.4429Z" fill="white"/>
<path d="M37.3157 78.4161C37.3157 82.5252 36.478 85.8234 32.5726 85.8234C29.7441 85.8234 28.3625 82.8758 28.3625 78.7667C28.3625 74.6577 29.8202 71.5566 32.8772 71.7868C35.9668 72.0169 37.3157 74.307 37.3157 78.4161Z" fill="#2F2F2D"/>
<path d="M71.6924 79.2598C71.6924 83.3689 71.0071 86.437 67.1016 86.437C64.2732 86.437 62.9678 82.9854 62.9678 78.8763C62.9678 74.7672 63.8054 72.4004 66.8732 72.4004C69.8648 72.4004 71.6924 75.1507 71.6924 79.2598Z" fill="#2F2F2D"/>
<path d="M50.8923 112.943L45.4857 115.31C45.4857 115.31 45.5074 118.992 47.966 118.959C49.8153 118.926 50.4354 117.798 50.4354 117.798C50.4354 117.798 51.3601 118.992 53.4379 118.959C55.8965 118.915 55.6681 115.814 55.6681 115.814L50.8923 112.943Z" fill="#FFD792"/>
<path d="M55.5919 107.771L44.822 109.053C44.822 109.053 45.3334 115.332 45.5618 115.869C45.7903 116.406 46.171 117.107 47.8572 117.261C49.5434 117.414 50.4572 116.099 50.4572 116.099C50.4572 116.099 51.0773 117.315 52.8722 117.469C53.9819 117.567 55.5158 117.14 55.7007 116.351C56.0163 115.036 55.9075 113.875 55.8965 111.935C55.8857 110.226 55.5919 107.771 55.5919 107.771Z" fill="#FEE2B3"/>
<path d="M50.2288 97.2302C50.2288 97.2302 55.3091 90.8091 57.0715 93.0116C59.1384 95.5976 51.7627 100.824 51.7627 100.824C51.7627 100.824 52.0238 104.879 52.361 105.174C55.3526 107.76 57.8764 104.824 58.1811 104.517C58.4857 104.21 60.2481 102.862 61.4012 104.32C62.5544 105.777 60.2916 110.84 55.8095 111.146C51.3275 111.453 50.3701 108.911 50.3701 108.911C50.3701 108.911 49.6848 111.804 44.5501 111.574C39.4154 111.344 38.7735 105.711 39.9158 104.868C41.0688 104.024 41.4605 104.09 43.8212 106.106C45.3116 107.377 48.0313 106.303 48.1836 104.911C48.2597 104.254 48.1401 100.78 48.1401 100.78C48.1401 100.78 39.8722 95.6852 42.1241 92.9896C44.3978 90.2941 50.2288 97.2302 50.2288 97.2302Z" fill="#2C2C2C"/>
<path d="M19.801 100.167C19.5942 100.167 19.3876 100.123 19.1808 100.046C19.1373 100.035 14.9708 98.3369 10.2059 98.4684C5.0276 98.6218 2.36235 99.3779 2.34055 99.3779C1.47028 99.63 0.567368 99.1258 0.317126 98.2602C0.0669874 97.3946 0.556519 96.4851 1.42679 96.2221C1.54643 96.1892 4.45107 95.3455 10.108 95.1811C15.6017 95.0059 20.2361 96.9234 20.4319 97.0001C21.2696 97.3507 21.6612 98.3041 21.3131 99.1478C21.052 99.7834 20.4428 100.167 19.801 100.167Z" fill="#838584"/>
<path d="M2.19919 111.322C1.72051 111.322 1.24183 111.113 0.915437 110.697C0.349758 109.985 0.469403 108.955 1.17653 108.385C1.32882 108.264 4.97324 105.372 9.70551 104.166C14.3507 102.983 19.6487 103.334 19.8662 103.345C20.7692 103.41 21.4436 104.188 21.3783 105.098C21.3131 106.007 20.5516 106.709 19.6378 106.621C19.5942 106.621 14.6226 106.292 10.4996 107.344C6.44184 108.374 3.2326 110.916 3.20006 110.949C2.90632 111.201 2.54728 111.322 2.19919 111.322Z" fill="#838584"/>
<path d="M7.09461 120.11C6.68123 120.11 6.25689 119.945 5.94145 119.627C5.29963 118.981 5.29963 117.94 5.94145 117.305C6.05025 117.195 8.74815 114.477 11 112.735C13.3607 110.905 18.3105 109.032 18.5173 108.955C19.3658 108.637 20.3013 109.064 20.6169 109.919C20.9323 110.774 20.5081 111.716 19.6595 112.034C18.354 112.527 14.6226 114.083 12.9799 115.343C10.9022 116.954 8.26947 119.595 8.23682 119.627C7.93223 119.956 7.50799 120.11 7.09461 120.11Z" fill="#838584"/>
<path d="M78.8725 100.627C78.1544 100.627 77.4909 100.145 77.295 99.4108C77.0557 98.5342 77.567 97.6357 78.4373 97.3946C78.6331 97.3398 83.2131 96.1016 87.6407 95.9482C92.4599 95.7839 96.4524 97.0549 96.6157 97.1097C97.4751 97.3836 97.9428 98.3041 97.6709 99.1698C97.3989 100.035 96.4742 100.507 95.6257 100.233C95.593 100.222 91.9922 99.0931 87.7495 99.2245C83.7135 99.356 79.3294 100.55 79.2859 100.561C79.1553 100.605 79.0138 100.627 78.8725 100.627Z" fill="#838584"/>
<path d="M95.6148 109.733C95.2558 109.733 94.8859 109.612 94.5813 109.36C94.5705 109.349 92.4491 107.673 88.152 106.654C83.9963 105.668 79.8732 106.018 79.8298 106.018C78.9486 106.095 78.1436 105.426 78.0674 104.528C77.9913 103.619 78.6549 102.83 79.547 102.753C79.7319 102.731 84.2356 102.358 88.8918 103.454C94.0048 104.659 96.5504 106.73 96.6483 106.818C97.3445 107.399 97.4424 108.429 96.8768 109.13C96.5504 109.525 96.0825 109.733 95.6148 109.733Z" fill="#838584"/>
<path d="M92.6993 117.798C92.3186 117.798 91.9378 117.666 91.6332 117.392C91.6005 117.37 88.6415 114.795 85.8783 113.469C83.2348 112.209 79.3947 112.132 79.362 112.132C78.459 112.122 77.741 111.376 77.752 110.467C77.7628 109.568 78.4917 108.845 79.3837 108.845H79.4055C79.5905 108.845 83.9854 108.922 87.2817 110.489C90.4583 112.012 93.6458 114.784 93.7764 114.894C94.4617 115.485 94.527 116.526 93.9395 117.217C93.6131 117.611 93.1562 117.798 92.6993 117.798Z" fill="#838584"/>
</g>
<defs>
<clipPath id="clip0_7_255">
<rect width="98" height="131" fill="white"/>
</clipPath>
</defs>
</svg>
