<svg width="166" height="166" viewBox="0 0 166 166" fill="none" xmlns="http://www.w3.org/2000/svg">
<g clip-path="url(#clip0_7_326)">
<path d="M88.6717 43.8517C88.6735 44.4814 88.545 45.1047 88.2943 45.6824C88.0435 46.26 87.676 46.7796 87.2148 47.2083C86.7535 47.6371 86.2086 47.9658 85.6142 48.1737C85.0198 48.3817 84.3888 48.4644 83.7608 48.4167C79.7146 48.4167 79.265 43.99 79.265 43.99C78.5913 35.1179 80.211 26.2217 83.9683 18.1563C91.715 1.6946 102.159 -0.76082 107.45 13.3492C112.742 27.4592 103.819 16.1504 95.6921 25.0729C91.3741 30.4036 88.9097 36.9956 88.6717 43.8517Z" fill="#6DD627"/>
<path d="M88.1183 26.1796C94.4125 12.9342 102.505 8.88792 108.142 15.3204L107.45 13.3492C102.159 -0.76083 91.715 1.69459 83.9683 18.0179C80.211 26.0833 78.5913 34.9796 79.265 43.8517C79.265 43.8517 79.5417 47.9325 83.2767 48.4167C83.2607 40.7411 84.9127 33.1537 88.1183 26.1796Z" fill="#9CEB60"/>
<path opacity="0.15" d="M14.9399 155.487C14.9399 156.413 16.7004 157.331 20.1207 158.187C23.541 159.042 28.5543 159.82 34.8743 160.475C41.1942 161.13 48.6971 161.65 56.9545 162.005C65.2119 162.359 74.0622 162.542 82.9999 162.542C91.9377 162.542 100.788 162.359 109.045 162.005C117.303 161.65 124.806 161.13 131.126 160.475C137.446 159.82 142.459 159.042 145.879 158.187C149.3 157.331 151.06 156.413 151.06 155.487C151.06 154.56 149.3 153.643 145.879 152.787C142.459 151.931 137.446 151.153 131.126 150.498C124.806 149.843 117.303 149.323 109.045 148.969C100.788 148.614 91.9377 148.432 82.9999 148.432C74.0622 148.432 65.2119 148.614 56.9545 148.969C48.6971 149.323 41.1942 149.843 34.8743 150.498C28.5543 151.153 23.541 151.931 20.1207 152.787C16.7004 153.643 14.9399 154.56 14.9399 155.487Z" fill="#45413C"/>
<path d="M88.6717 43.8517C88.6735 44.4814 88.545 45.1047 88.2943 45.6824C88.0435 46.26 87.676 46.7796 87.2148 47.2083C86.7535 47.6371 86.2086 47.9658 85.6142 48.1737C85.0198 48.3817 84.3888 48.4644 83.7608 48.4167C79.7146 48.4167 79.265 43.99 79.265 43.99C78.5913 35.1179 80.211 26.2217 83.9683 18.1563C91.715 1.6946 102.159 -0.76082 107.45 13.3492C112.742 27.4592 103.819 16.1504 95.6921 25.0729C91.3741 30.4036 88.9097 36.9956 88.6717 43.8517Z" stroke="#45413C" stroke-linecap="round" stroke-linejoin="round"/>
<path d="M126.748 36.5892C121.137 34.6649 115.161 34.0477 109.275 34.785C103.389 35.5222 97.75 37.5942 92.7871 40.8429C89.9064 42.8207 86.4942 43.8793 83 43.8793C79.5058 43.8793 76.0936 42.8207 73.2129 40.8429C68.25 37.5942 62.6105 35.5222 56.7249 34.785C50.8392 34.0477 44.8629 34.6649 39.2521 36.5892C17.4992 42.9525 7.50457 74.3542 16.9804 106.69C26.4562 139.025 51.875 160.086 73.5242 153.688C75.2492 153.194 76.9182 152.522 78.5042 151.683C79.8847 150.935 81.43 150.543 83 150.543C84.57 150.543 86.1152 150.935 87.4958 151.683C89.0818 152.522 90.7507 153.194 92.4758 153.688C114.125 160.086 139.544 139.025 149.02 106.69C158.495 74.3542 148.501 42.9525 126.748 36.5892Z" fill="#FF6242"/>
<path d="M39.2521 51.875C44.87 50.1276 50.7896 49.5665 56.6357 50.2273C62.4819 50.8881 68.1269 52.7564 73.213 55.7137C76.1668 57.4951 79.5507 58.4365 83 58.4365C86.4494 58.4365 89.8333 57.4951 92.7871 55.7137C97.8732 52.7564 103.518 50.8881 109.364 50.2273C115.21 49.5665 121.13 50.1276 126.748 51.875C141.55 55.7829 150.956 70.2042 152.374 88.1875C154.173 63.1492 144.282 41.7421 126.748 36.6237C121.137 34.6994 115.161 34.0823 109.275 34.8195C103.389 35.5567 97.75 37.6287 92.7871 40.8775C89.9065 42.8552 86.4943 43.9138 83 43.9138C79.5058 43.9138 76.0936 42.8552 73.213 40.8775C68.2501 37.6287 62.6106 35.5567 56.7249 34.8195C50.8393 34.0823 44.863 34.6994 39.2521 36.6237C21.7184 41.7421 11.8276 63.1492 13.6259 88.1875C15.113 70.1696 24.4505 55.7483 39.2521 51.875Z" fill="#FF866E"/>
<path d="M126.748 36.5892C121.137 34.6649 115.161 34.0477 109.275 34.785C103.389 35.5222 97.75 37.5942 92.7871 40.8429C89.9064 42.8207 86.4942 43.8793 83 43.8793C79.5058 43.8793 76.0936 42.8207 73.2129 40.8429C68.25 37.5942 62.6105 35.5222 56.7249 34.785C50.8392 34.0477 44.8629 34.6649 39.2521 36.5892C17.4992 42.9525 7.50457 74.3542 16.9804 106.69C26.4562 139.025 51.875 160.086 73.5242 153.688C75.2492 153.194 76.9182 152.522 78.5042 151.683C79.8847 150.935 81.43 150.543 83 150.543C84.57 150.543 86.1152 150.935 87.4958 151.683C89.0818 152.522 90.7507 153.194 92.4758 153.688C114.125 160.086 139.544 139.025 149.02 106.69C158.495 74.3542 148.501 42.9525 126.748 36.5892Z" stroke="#45413C" stroke-linecap="round" stroke-linejoin="round"/>
<path d="M79.2304 43.4367C79.2304 43.4367 84.3487 23.6204 67.5067 15.2858C58.0308 10.5825 45.65 14.94 41.1196 16.8421C40.6079 17.044 40.188 17.4266 39.9394 17.9174C39.6908 18.4081 39.6309 18.973 39.7708 19.505C41.085 24.9692 46.0996 40.255 60.5208 41.085C78.5042 42.1225 79.2304 43.4367 79.2304 43.4367Z" fill="#6DD627"/>
<path d="M41.8804 25.8683C46.895 23.8625 58.4804 20.1621 67.5067 24.6233C70.7699 26.1976 73.5835 28.5693 75.6871 31.5192C77.7907 34.4691 79.1164 37.9019 79.5417 41.5C80.3371 36.2779 81.0287 22.0987 67.4375 15.355C57.9617 10.6517 45.5808 15.0092 41.0504 16.9112C40.5387 17.1132 40.1188 17.4958 39.8702 17.9865C39.6217 18.4773 39.5617 19.0421 39.7017 19.5742C40.2492 21.7299 40.9781 23.8354 41.8804 25.8683Z" fill="#9CEB60"/>
<path d="M79.2304 43.4367C79.2304 43.4367 84.3487 23.6204 67.5067 15.2858C58.0308 10.5825 45.65 14.94 41.1196 16.8421C40.6079 17.044 40.188 17.4266 39.9394 17.9174C39.6908 18.4081 39.6309 18.973 39.7708 19.505C41.085 24.9692 46.0996 40.255 60.5208 41.085C78.5042 42.1225 79.2304 43.4367 79.2304 43.4367Z" stroke="#45413C" stroke-linecap="round" stroke-linejoin="round"/>
<path d="M79.2304 43.4366C76.3296 35.3231 70.459 28.612 62.8033 24.6579Z" fill="#6DD627"/>
<path d="M79.2304 43.4366C76.3296 35.3231 70.459 28.612 62.8033 24.6579" stroke="#45413C" stroke-linecap="round" stroke-linejoin="round"/>
</g>
<defs>
<clipPath id="clip0_7_326">
<rect width="166" height="166" fill="white"/>
</clipPath>
</defs>
</svg>
