<svg width="106" height="106" viewBox="0 0 106 106" fill="none" xmlns="http://www.w3.org/2000/svg">
<path d="M85.9952 8.75637C84.2521 8.7917 83.3979 10.18 83.2912 10.8915L90.3357 16.1927L95.2101 22.8461C96.1174 22.5082 97.0068 21.6541 97.1672 20.8003C97.416 19.1459 96.9713 18.4163 96.3488 17.7938C95.7263 17.1713 95.2101 17.0109 93.5559 16.9933C94.9434 16.1927 95.8329 14.7338 95.4593 12.9728C95.4593 12.9728 95.0679 11.1937 93.2711 10.6779C91.7236 10.1975 90.0335 10.6779 89.0192 12.5458C89.0906 11.6918 88.8592 10.5536 88.6815 10.3043C88.5034 10.0551 87.7386 8.72103 85.9952 8.75637Z" fill="#6B438B"/>
<path d="M57.1525 48.8476C52.7813 44.4764 50.3255 38.5477 50.3255 32.3659C50.3255 26.1841 52.7813 20.2554 57.1525 15.8842C61.5237 11.513 67.4523 9.05731 73.6341 9.05731C79.8159 9.05731 85.7446 11.513 90.1158 15.8842C94.487 20.2555 96.9427 26.1841 96.9427 32.3659C96.9427 38.5477 94.487 44.4764 90.1158 48.8476C85.7446 53.2188 79.8159 55.6745 73.6341 55.6745C67.4523 55.6745 61.5237 53.2188 57.1525 48.8476Z" fill="#8D65C5" stroke="black"/>
<path d="M16.1724 54.9084C11.4566 50.1926 8.80731 43.7967 8.80731 37.1276C8.80731 30.4585 11.4566 24.0626 16.1724 19.3468C20.8881 14.631 27.2841 11.9818 33.9531 11.9818C40.6222 11.9818 47.0182 14.631 51.7339 19.3468C56.4497 24.0626 59.099 30.4585 59.099 37.1276C59.099 43.7967 56.4497 50.1926 51.7339 54.9084C47.0182 59.6241 40.6222 62.2734 33.9531 62.2734C27.2841 62.2734 20.8881 59.6241 16.1724 54.9084Z" fill="#6B438B" stroke="black" stroke-width="0.5"/>
<path d="M31.5831 18.9817C28.238 17.1597 25.2235 19.5781 24.3955 19.7442C23.5675 19.9103 20.3878 18.4518 17.8375 21.2343C15.2873 24.0168 16.5128 26.7321 16.4796 27.8917C16.4464 29.0513 14.1279 32.1316 15.9827 34.9134C17.8375 37.6952 21.2822 37.6946 22.2096 38.2584C23.1369 38.8221 24.0642 41.1401 28.0389 40.7757C32.0137 40.411 32.6429 36.7679 33.2721 36.1057C33.9014 35.4439 37.7434 33.8532 37.7434 30.2764C37.7434 26.6997 34.928 25.3417 34.6302 24.5792C34.3321 23.8167 34.9283 20.8037 31.5831 18.9817Z" fill="#AA7DE5"/>
<path d="M19.0334 29.3355C19.0334 31.2298 19.7859 33.0466 21.1254 34.3861C22.4649 35.7256 24.2816 36.4781 26.176 36.4781C28.0703 36.4781 29.887 35.7256 31.2265 34.3861C32.566 33.0466 33.3185 31.2298 33.3185 29.3355C33.3185 27.4412 32.566 25.6244 31.2265 24.2849C29.887 22.9455 28.0703 22.1929 26.176 22.1929C24.2816 22.1929 22.4649 22.9455 21.1254 24.2849C19.7859 25.6244 19.0334 27.4412 19.0334 29.3355Z" fill="#533566"/>
<path d="M42.4096 88.9863C37.075 83.6517 34.0781 76.4165 34.0781 68.8724C34.0781 61.3282 37.075 54.093 42.4096 48.7585C47.7441 43.424 54.9793 40.4271 62.5234 40.4271C70.0676 40.4271 77.3028 43.424 82.6373 48.7585C87.9718 54.093 90.9688 61.3282 90.9688 68.8724C90.9688 76.4165 87.9718 83.6517 82.6373 88.9863C77.3028 94.3208 70.0676 97.3177 62.5234 97.3177C54.9793 97.3177 47.7441 94.3208 42.4096 88.9863Z" fill="#8D65C5" stroke="black" stroke-width="0.25"/>
<path d="M77.9266 49.3122C76.1416 48.0297 74.468 43.3991 68.9454 43.4547C63.4231 43.5102 62.3631 47.2478 60.6337 48.6986C58.9042 50.1493 53.605 50.5398 52.2661 55.6158C50.9271 60.6918 53.8841 62.8117 54.8323 65.4893C55.7805 68.1673 54.5533 71.291 58.1233 74.5817C61.6933 77.8727 66.5468 75.5302 68.9454 75.5305C71.3444 75.5309 76.3089 77.9292 79.4326 74.9166C82.5566 71.9037 82.2779 67.3858 83.0029 65.4893C83.7283 63.5932 88.3024 59.3528 85.2902 54.3323C82.2776 49.3119 79.712 50.5947 77.9266 49.3122Z" fill="#BCA4EB"/>
<path d="M58.1109 60.9058C58.1109 63.7685 59.2481 66.5141 61.2724 68.5384C63.2967 70.5627 66.0423 71.6999 68.9051 71.6999C71.7679 71.6999 74.5134 70.5627 76.5377 68.5384C78.562 66.5141 79.6993 63.7685 79.6993 60.9058C79.6993 58.043 78.562 55.2974 76.5377 53.2731C74.5134 51.2488 71.7679 50.1116 68.9051 50.1116C66.0423 50.1116 63.2967 51.2488 61.2724 53.2731C59.2481 55.2974 58.1109 58.043 58.1109 60.9058Z" fill="#533566"/>
</svg>
