<svg width="196" height="196" viewBox="0 0 196 196" fill="none" xmlns="http://www.w3.org/2000/svg">
<path opacity="0.15" d="M37.8525 185.383C37.8525 187.116 44.2626 188.778 55.6726 190.003C67.0826 191.228 82.558 191.917 98.6942 191.917C114.83 191.917 130.306 191.228 141.716 190.003C153.126 188.778 159.536 187.116 159.536 185.383C159.536 183.651 153.126 181.989 141.716 180.764C130.306 179.538 114.83 178.85 98.6942 178.85C82.558 178.85 67.0826 179.538 55.6726 180.764C44.2626 181.989 37.8525 183.651 37.8525 185.383Z" fill="#45413C"/>
<path d="M108.535 126.583C107.663 131.81 105.729 136.802 102.852 141.251C99.9749 145.7 96.2158 149.512 91.8071 152.452C87.3985 155.391 82.4339 157.394 77.2202 158.339C72.0066 159.284 66.6546 159.149 61.495 157.943C56.2643 157.072 51.268 155.137 46.8154 152.257C42.3628 149.377 38.5486 145.614 35.609 141.201C32.6693 136.788 30.6667 131.818 29.7251 126.6C28.7836 121.381 28.9231 116.025 30.135 110.863C34.6675 88.2 59.6575 74.3575 75.7458 86.6075C93.345 81.9933 113.067 103.88 108.535 126.583Z" fill="#FF6242"/>
<path d="M30.135 122.5C34.6675 99.8783 59.6167 92.6917 75.7458 98.2858C91.875 103.88 105.677 108.208 108.698 125.563C112.414 103.308 93.1 82.1567 75.7458 86.6892C59.6575 74.4392 34.6675 88.2817 30.135 110.944C29.1892 115.692 29.0512 120.565 29.7267 125.358C29.8492 124.338 29.9717 123.398 30.135 122.5Z" fill="#FF866E"/>
<path d="M108.535 126.583C107.663 131.81 105.729 136.802 102.852 141.251C99.9749 145.7 96.2158 149.512 91.8071 152.452C87.3985 155.391 82.4339 157.394 77.2202 158.339C72.0066 159.284 66.6546 159.149 61.495 157.943C56.2643 157.072 51.268 155.137 46.8154 152.257C42.3628 149.377 38.5486 145.614 35.609 141.201C32.6693 136.788 30.6667 131.818 29.7251 126.6C28.7836 121.381 28.9231 116.025 30.135 110.863C34.6675 88.2 59.6575 74.3575 75.7458 86.6075C93.345 81.9933 113.067 103.88 108.535 126.583Z" stroke="#45413C" stroke-linejoin="round"/>
<path d="M156.269 143.162C156.439 148.454 155.523 153.725 153.576 158.649C151.63 163.573 148.695 168.046 144.953 171.792C141.211 175.538 136.741 178.478 131.819 180.429C126.896 182.38 121.627 183.302 116.334 183.137C111.038 183.308 105.764 182.39 100.837 180.441C95.9099 178.493 91.4348 175.554 87.6882 171.808C83.9416 168.061 81.0031 163.586 79.0544 158.659C77.1057 153.732 76.1881 148.457 76.3583 143.162C76.3583 120.091 98.1633 101.593 116.334 110.495C132.667 102.533 156.269 120.091 156.269 143.162Z" fill="#FF6242"/>
<path d="M116.334 122.5C129.646 122.5 152.349 129.401 155.779 149.613C156.089 147.422 156.253 145.212 156.269 142.998C156.269 119.928 132.668 102.165 116.334 110.332C98.1634 101.471 76.3584 119.968 76.3584 142.998C76.3528 145.158 76.5167 147.316 76.8484 149.45C80.0742 129.36 102.982 122.5 116.334 122.5Z" fill="#FF866E"/>
<path d="M156.269 143.162C156.439 148.454 155.523 153.725 153.576 158.649C151.63 163.573 148.695 168.046 144.953 171.792C141.211 175.538 136.741 178.478 131.819 180.429C126.896 182.38 121.627 183.302 116.334 183.137C111.038 183.308 105.764 182.39 100.837 180.441C95.9099 178.493 91.4348 175.554 87.6882 171.808C83.9416 168.061 81.0031 163.586 79.0544 158.659C77.1057 153.732 76.1881 148.457 76.3583 143.162C76.3583 120.091 98.1633 101.593 116.334 110.495C132.667 102.533 156.269 120.091 156.269 143.162Z" stroke="#45413C" stroke-linejoin="round"/>
<path d="M75.7458 86.6075C75.7458 86.6075 83.9125 69.9067 114.497 53.6958C129.591 45.9663 146.808 43.4124 163.497 46.4275" stroke="#45413C" stroke-linecap="round" stroke-linejoin="round"/>
<path d="M116.334 110.454C116.334 110.454 119.356 65.5375 163.538 46.4275" stroke="#45413C" stroke-linecap="round" stroke-linejoin="round"/>
<path d="M138.017 13.5158C125.746 6.1931 111.179 3.73114 97.1833 6.61501C96.5749 6.7193 95.998 6.96019 95.4961 7.31955C94.9942 7.67892 94.5802 8.14741 94.2855 8.68979C93.9907 9.23218 93.8227 9.83434 93.7942 10.451C93.7657 11.0676 93.8774 11.6827 94.1208 12.25C98.7539 25.7431 108.265 37.0162 120.785 43.855C127.189 47.7094 134.298 50.2473 141.695 51.3201C149.092 52.3929 156.629 51.9789 163.864 50.1025C164.128 50.0369 164.376 49.918 164.593 49.7533C164.809 49.5885 164.99 49.3813 165.124 49.1444C165.258 48.9074 165.342 48.6456 165.371 48.3751C165.4 48.1045 165.374 47.8309 165.293 47.5708C163.252 40.3605 159.786 33.6322 155.101 27.7831C150.416 21.9341 144.607 17.0829 138.017 13.5158Z" fill="#6DD627"/>
<path d="M96.9791 19.0692H97.265C111.26 16.1487 125.841 18.6129 138.098 25.97C148.294 31.587 156.582 40.1172 161.904 50.47C162.598 50.47 163.292 50.1842 163.946 49.98C164.21 49.9144 164.458 49.7955 164.674 49.6308C164.891 49.466 165.072 49.2588 165.205 49.0219C165.339 48.7849 165.423 48.5231 165.452 48.2526C165.482 47.982 165.455 47.7084 165.375 47.4483C163.309 40.2532 159.824 33.5443 155.126 27.7167C150.427 21.8891 144.61 17.0607 138.017 13.5158C125.746 6.1931 111.179 3.73114 97.1833 6.61501C96.5749 6.7193 95.998 6.96019 95.4961 7.31955C94.9942 7.67892 94.5802 8.14741 94.2855 8.68979C93.9907 9.23218 93.8227 9.83434 93.7942 10.451C93.7657 11.0676 93.8774 11.6827 94.1208 12.25C94.8963 14.5934 95.8519 16.8732 96.9791 19.0692Z" fill="#9CEB60"/>
<path d="M138.017 13.5158C125.746 6.1931 111.179 3.73114 97.1833 6.61501C96.5749 6.7193 95.998 6.96019 95.4961 7.31955C94.9942 7.67892 94.5802 8.14741 94.2855 8.68979C93.9907 9.23218 93.8227 9.83434 93.7942 10.451C93.7657 11.0676 93.8774 11.6827 94.1208 12.25C98.7539 25.7431 108.265 37.0162 120.785 43.855C127.189 47.7094 134.298 50.2473 141.695 51.3201C149.092 52.3929 156.629 51.9789 163.864 50.1025C164.128 50.0369 164.376 49.918 164.593 49.7533C164.809 49.5885 164.99 49.3813 165.124 49.1444C165.258 48.9074 165.342 48.6456 165.371 48.3751C165.4 48.1045 165.374 47.8309 165.293 47.5708C163.252 40.3605 159.786 33.6322 155.101 27.7831C150.416 21.9341 144.607 17.0829 138.017 13.5158Z" stroke="#45413C" stroke-linecap="round" stroke-linejoin="round"/>
</svg>
