<svg width="193" height="193" viewBox="0 0 193 193" fill="none" xmlns="http://www.w3.org/2000/svg">
<path d="M69.0377 72.6967C57.4577 70.3244 41.7363 70.4048 35.9061 80.7383C28.4273 93.9669 40.329 100.4 47.6469 93.605C54.9648 86.8098 41.0929 69.48 15.4802 78.1248" stroke="#45413C" stroke-linecap="round" stroke-linejoin="round"/>
<path d="M156.531 144.75C158.801 148.131 160.017 152.11 160.026 156.182C160.034 160.255 158.835 164.239 156.579 167.629C154.323 171.02 151.112 173.665 147.352 175.231C143.592 176.796 139.452 177.211 135.457 176.423C131.461 175.635 127.789 173.68 124.905 170.805C122.02 167.929 120.054 164.263 119.254 160.27C118.454 156.276 118.856 152.135 120.41 148.371C121.964 144.606 124.599 141.387 127.983 139.121C132.516 136.085 138.069 134.972 143.422 136.028C148.775 137.083 153.49 140.22 156.531 144.75Z" fill="#9F5AE5"/>
<path d="M158.582 148.771C157.844 149.453 157.051 150.072 156.209 150.62C151.953 153.465 146.934 154.951 141.815 154.883C141.282 158.252 140.056 161.474 138.215 164.346C136.374 167.218 133.958 169.677 131.119 171.569C130.142 172.238 129.106 172.817 128.023 173.298C125.763 171.836 123.832 169.919 122.354 167.669C120.112 164.297 118.915 160.339 118.915 156.29C118.915 152.241 120.112 148.282 122.354 144.911C123.864 142.629 125.803 140.663 128.064 139.121C130.842 137.233 134.049 136.072 137.392 135.743C141.098 135.373 144.836 136.014 148.207 137.601C151.577 139.187 154.454 141.658 156.531 144.75C157.387 145.995 158.077 147.347 158.582 148.771Z" fill="#803EC2"/>
<path d="M156.531 144.75C158.801 148.131 160.017 152.11 160.026 156.182C160.034 160.255 158.835 164.239 156.579 167.629C154.323 171.02 151.112 173.665 147.352 175.231C143.592 176.796 139.452 177.211 135.457 176.423C131.461 175.635 127.789 173.68 124.905 170.805C122.02 167.929 120.054 164.263 119.254 160.27C118.454 156.276 118.856 152.135 120.41 148.371C121.964 144.606 124.599 141.387 127.983 139.121C132.516 136.085 138.069 134.972 143.422 136.028C148.775 137.083 153.49 140.22 156.531 144.75Z" stroke="#45413C" stroke-linecap="round" stroke-linejoin="round"/>
<path d="M128.425 61.559C130.938 65.3124 132.282 69.7268 132.286 74.2437C132.29 78.7607 130.954 83.1774 128.448 86.9353C125.942 90.6933 122.378 93.6237 118.206 95.356C114.035 97.0883 109.443 97.5447 105.012 96.6675C100.581 95.7903 96.5097 93.6189 93.3128 90.4279C90.116 87.2368 87.9371 83.1695 87.0518 78.7401C86.1665 74.3108 86.6146 69.7184 88.3393 65.5437C90.064 61.369 92.9879 57.7994 96.7412 55.2865C101.778 51.9272 107.94 50.7011 113.879 51.8768C119.818 53.0525 125.049 56.5341 128.425 61.559Z" fill="#803EC2" stroke="#45413C" stroke-linecap="round" stroke-linejoin="round"/>
<path opacity="0.15" d="M54.9648 178.083C54.9648 179.906 60.5058 181.655 70.3688 182.945C80.2318 184.234 93.6089 184.958 107.557 184.958C121.506 184.958 134.883 184.234 144.746 182.945C154.609 181.655 160.15 179.906 160.15 178.083C160.15 176.259 154.609 174.51 144.746 173.221C134.883 171.931 121.506 171.207 107.557 171.207C93.6089 171.207 80.2318 171.931 70.3688 173.221C60.5058 174.51 54.9648 176.259 54.9648 178.083Z" fill="#45413C"/>
<path d="M94.2483 84.4375C96.7561 88.1915 98.0951 92.6045 98.096 97.1191C98.097 101.634 96.76 106.047 94.2538 109.802C91.7476 113.557 88.1847 116.485 84.0152 118.216C79.8458 119.948 75.2567 120.404 70.8279 119.529C66.3991 118.653 62.3291 116.484 59.1322 113.297C55.9352 110.109 53.7547 106.045 52.8661 101.619C51.9776 97.1929 52.4207 92.6026 54.1397 88.4281C55.8586 84.2535 58.7763 80.6821 62.524 78.165C65.0159 76.4849 67.8155 75.314 70.7617 74.7199C73.7078 74.1257 76.7424 74.1199 79.6908 74.7029C82.6392 75.2858 85.4432 76.446 87.9416 78.1166C90.4399 79.7873 92.5833 81.9354 94.2483 84.4375Z" fill="#9F5AE5"/>
<path d="M62.524 90.1471C67.5734 86.7828 73.7524 85.5621 79.7018 86.7535C85.6513 87.9449 90.8838 91.4508 94.2483 96.5C95.6311 98.554 96.6637 100.823 97.3042 103.215C98.1746 99.8402 98.2611 96.3112 97.5572 92.898C96.8533 89.4847 95.3776 86.2779 93.2431 83.523C91.1086 80.7681 88.3719 78.5382 85.2427 77.0042C82.1134 75.4701 78.6746 74.6725 75.1896 74.6725C71.7045 74.6725 68.2657 75.4701 65.1365 77.0042C62.0072 78.5382 59.2706 80.7681 57.1361 83.523C55.0016 86.2779 53.5259 89.4847 52.822 92.898C52.1181 96.3112 52.2046 99.8402 53.075 103.215C54.5443 97.8613 57.9004 93.2198 62.524 90.1471Z" fill="#BF8DF2"/>
<path d="M94.2483 84.4375C96.7561 88.1915 98.0951 92.6045 98.096 97.1191C98.097 101.634 96.76 106.047 94.2538 109.802C91.7476 113.557 88.1847 116.485 84.0152 118.216C79.8458 119.948 75.2567 120.404 70.8279 119.529C66.3991 118.653 62.3291 116.484 59.1322 113.297C55.9352 110.109 53.7547 106.045 52.8661 101.619C51.9776 97.1929 52.4207 92.6026 54.1397 88.4281C55.8586 84.2535 58.7763 80.6821 62.524 78.165C65.0159 76.4849 67.8155 75.314 70.7617 74.7199C73.7078 74.1257 76.7424 74.1199 79.6908 74.7029C82.6392 75.2858 85.4432 76.446 87.9416 78.1166C90.4399 79.7873 92.5833 81.9354 94.2483 84.4375Z" stroke="#45413C" stroke-linecap="round" stroke-linejoin="round"/>
<path d="M91.1523 116.805C93.673 120.564 95.0222 124.986 95.0292 129.512C95.0361 134.038 93.7005 138.465 91.1913 142.231C88.6821 145.998 85.1121 148.936 80.9329 150.673C76.7537 152.411 72.153 152.869 67.713 151.992C63.273 151.114 59.1932 148.939 55.9896 145.742C52.786 142.544 50.6026 138.469 49.7157 134.031C48.8288 129.593 49.2781 124.991 51.0069 120.808C52.7358 116.626 55.6663 113.05 59.4279 110.533C64.4676 107.161 70.6397 105.927 76.5883 107.103C82.5368 108.28 87.7751 111.769 91.1523 116.805Z" fill="#9F5AE5"/>
<path d="M59.4279 123.721C64.4676 120.349 70.6397 119.116 76.5883 120.292C82.5368 121.468 87.7751 124.957 91.1523 129.994C92.4062 131.881 93.3812 133.939 94.0473 136.105C95.0843 132.687 95.3064 129.073 94.6956 125.553C94.0848 122.033 92.6582 118.705 90.5301 115.835C88.4019 112.966 85.6313 110.635 82.4403 109.028C79.2492 107.422 75.7264 106.586 72.1539 106.586C68.5814 106.586 65.0585 107.422 61.8675 109.028C58.6764 110.635 55.9058 112.966 53.7777 115.835C51.6495 118.705 50.223 122.033 49.6122 125.553C49.0014 129.073 49.2234 132.687 50.2604 136.105C51.7985 131.044 55.0368 126.67 59.4279 123.721Z" fill="#BF8DF2"/>
<path d="M91.1523 116.805C93.673 120.564 95.0222 124.986 95.0292 129.512C95.0361 134.038 93.7005 138.465 91.1913 142.231C88.6821 145.998 85.1121 148.936 80.9329 150.673C76.7537 152.411 72.153 152.869 67.713 151.992C63.273 151.114 59.1932 148.939 55.9896 145.742C52.786 142.544 50.6026 138.469 49.7157 134.031C48.8288 129.593 49.2781 124.991 51.0069 120.808C52.7358 116.626 55.6663 113.05 59.4279 110.533C64.4676 107.161 70.6397 105.927 76.5883 107.103C82.5368 108.28 87.7751 111.769 91.1523 116.805Z" stroke="#45413C" stroke-linecap="round" stroke-linejoin="round"/>
<path d="M154.44 71.6512C156.953 75.4047 158.296 79.819 158.3 84.336C158.304 88.8529 156.969 93.2696 154.463 97.0276C151.957 100.786 148.392 103.716 144.221 105.448C140.049 107.181 135.458 107.637 131.027 106.76C126.596 105.883 122.524 103.711 119.328 100.52C116.131 97.3291 113.952 93.2618 113.067 88.8324C112.181 84.4031 112.629 79.8107 114.354 75.636C116.079 71.4613 119.003 67.8917 122.756 65.3787C127.793 62.0194 133.955 60.7933 139.894 61.969C145.833 63.1447 151.063 66.6264 154.44 71.6512Z" fill="#9F5AE5"/>
<path d="M122.756 78.165C127.793 74.8057 133.955 73.5796 139.894 74.7553C145.833 75.931 151.063 79.4126 154.44 84.4375C155.753 86.3746 156.757 88.5044 157.416 90.7502C158.416 87.3392 158.608 83.742 157.976 80.2439C157.344 76.7459 155.906 73.4432 153.775 70.5978C151.644 67.7525 148.88 65.4428 145.701 63.8519C142.522 62.261 139.017 61.4327 135.462 61.4327C131.907 61.4327 128.401 62.261 125.223 63.8519C122.044 65.4428 119.279 67.7525 117.149 70.5978C115.018 73.4432 113.58 76.7459 112.948 80.2439C112.316 83.742 112.508 87.3392 113.508 90.7502C115.016 85.5987 118.29 81.143 122.756 78.165Z" fill="#BF8DF2"/>
<path d="M154.44 71.6512C156.953 75.4047 158.296 79.819 158.3 84.336C158.304 88.8529 156.969 93.2696 154.463 97.0276C151.957 100.786 148.392 103.716 144.221 105.448C140.049 107.181 135.458 107.637 131.027 106.76C126.596 105.883 122.524 103.711 119.328 100.52C116.131 97.3291 113.952 93.2618 113.067 88.8324C112.181 84.4031 112.629 79.8107 114.354 75.636C116.079 71.4613 119.003 67.8917 122.756 65.3787C127.793 62.0194 133.955 60.7933 139.894 61.969C145.833 63.1447 151.063 66.6264 154.44 71.6512Z" stroke="#45413C" stroke-linecap="round" stroke-linejoin="round"/>
<path d="M158.984 107.155C161.492 110.909 162.83 115.322 162.831 119.837C162.832 124.351 161.495 128.765 158.989 132.52C156.483 136.275 152.92 139.203 148.751 140.934C144.581 142.665 139.992 143.122 135.563 142.246C131.134 141.371 127.065 139.202 123.868 136.014C120.671 132.827 118.49 128.763 117.602 124.337C116.713 119.911 117.156 115.32 118.875 111.146C120.594 106.971 123.512 103.4 127.259 100.883C129.751 99.2026 132.551 98.0317 135.497 97.4376C138.443 96.8434 141.478 96.8376 144.426 97.4206C147.375 98.0035 150.179 99.1637 152.677 100.834C155.175 102.505 157.319 104.653 158.984 107.155Z" fill="#9F5AE5"/>
<path d="M127.259 110.533C130.353 108.453 133.909 107.162 137.617 106.772C141.325 106.383 145.071 106.908 148.529 108.3C151.988 109.692 155.053 111.909 157.457 114.759C159.861 117.608 161.531 121.002 162.321 124.646C163.031 121.317 162.988 117.872 162.196 114.562C161.403 111.252 159.88 108.161 157.739 105.515C155.598 102.869 152.893 100.735 149.821 99.2692C146.75 97.8033 143.389 97.0425 139.985 97.0425C136.582 97.0425 133.221 97.8033 130.149 99.2692C127.078 100.735 124.372 102.869 122.231 105.515C120.09 108.161 118.568 111.252 117.775 114.562C116.982 117.872 116.939 121.317 117.65 124.646C118.884 118.866 122.334 113.799 127.259 110.533Z" fill="#BF8DF2"/>
<path d="M158.984 107.155C161.492 110.909 162.83 115.322 162.831 119.837C162.832 124.351 161.495 128.765 158.989 132.52C156.483 136.275 152.92 139.203 148.751 140.934C144.581 142.665 139.992 143.122 135.563 142.246C131.134 141.371 127.065 139.202 123.868 136.014C120.671 132.827 118.49 128.763 117.602 124.337C116.713 119.911 117.156 115.32 118.875 111.146C120.594 106.971 123.512 103.4 127.259 100.883C129.751 99.2026 132.551 98.0317 135.497 97.4376C138.443 96.8434 141.478 96.8376 144.426 97.4206C147.375 98.0035 150.179 99.1637 152.677 100.834C155.175 102.505 157.319 104.653 158.984 107.155Z" stroke="#45413C" stroke-linecap="round" stroke-linejoin="round"/>
<path d="M125.45 135.1C127.948 138.872 129.271 143.3 129.252 147.824C129.234 152.348 127.875 156.765 125.346 160.517C122.818 164.268 119.234 167.186 115.048 168.901C110.862 170.617 106.261 171.052 101.827 170.153C97.3933 169.254 93.3256 167.06 90.1382 163.85C86.9508 160.639 84.7868 156.556 83.9197 152.116C83.0526 147.676 83.5214 143.078 85.2668 138.904C87.0122 134.73 89.9558 131.168 93.7256 128.667C98.788 125.321 104.971 124.119 110.918 125.325C116.865 126.531 122.091 130.046 125.45 135.1Z" fill="#9F5AE5"/>
<path d="M128.667 141.815C127.29 143.22 125.767 144.474 124.123 145.554C112.061 153.596 96.2989 151.505 89.0212 140.609C88.1348 139.363 87.4055 138.012 86.85 136.588C88.773 133.204 91.5304 130.368 94.8596 128.352C98.1887 126.335 101.979 125.204 105.869 125.067C109.759 124.93 113.619 125.791 117.082 127.569C120.544 129.346 123.495 131.98 125.651 135.221C127.01 137.239 128.028 139.467 128.667 141.815Z" fill="#803EC2"/>
<path d="M125.45 135.1C127.948 138.872 129.271 143.3 129.252 147.824C129.234 152.348 127.875 156.765 125.346 160.517C122.818 164.268 119.234 167.186 115.048 168.901C110.862 170.617 106.261 171.052 101.827 170.153C97.3933 169.254 93.3256 167.06 90.1382 163.85C86.9508 160.639 84.7868 156.556 83.9197 152.116C83.0526 147.676 83.5214 143.078 85.2668 138.904C87.0122 134.73 89.9558 131.168 93.7256 128.667C98.788 125.321 104.971 124.119 110.918 125.325C116.865 126.531 122.091 130.046 125.45 135.1Z" stroke="#45413C" stroke-linecap="round" stroke-linejoin="round"/>
<path d="M102.893 89.6244C96.3574 77.9578 86.945 68.1578 75.5515 61.1569C66.8978 55.3456 57.0424 51.5656 46.7221 50.0996C45.7241 49.9616 44.7085 50.1593 43.8351 50.6615C42.9616 51.1637 42.2799 51.942 41.8971 52.8739L39.5248 58.6639C39.2376 59.3421 39.1195 60.0799 39.1807 60.8138C39.2419 61.5477 39.4807 62.2558 39.8763 62.8769C40.272 63.4981 40.8127 64.0138 41.4519 64.3796C42.0911 64.7453 42.8096 64.9503 43.5456 64.9767C52.8924 65.509 61.9769 68.2661 70.0429 73.0183C92.0771 86.4479 98.1888 98.3496 98.1888 98.3496L102.893 89.6244Z" fill="#6DD627"/>
<path d="M72.8977 67.1077C84.1269 73.5392 93.6751 82.5363 100.762 93.3637L102.893 89.6244C96.3574 77.9578 86.9449 68.1578 75.5514 61.1569C66.8978 55.3456 57.0424 51.5656 46.7221 50.0996C45.724 49.9616 44.7085 50.1593 43.835 50.6615C42.9616 51.1637 42.2799 51.942 41.8971 52.8739L40.2083 56.6937C51.7674 57.5705 62.9615 61.1366 72.8977 67.1077Z" fill="#9CEB60"/>
<path d="M102.893 89.6244C96.3574 77.9578 86.945 68.1578 75.5515 61.1569C66.8978 55.3456 57.0424 51.5656 46.7221 50.0996C45.7241 49.9616 44.7085 50.1593 43.8351 50.6615C42.9616 51.1637 42.2799 51.942 41.8971 52.8739L39.5248 58.6639C39.2376 59.3421 39.1195 60.0799 39.1807 60.8138C39.2419 61.5477 39.4807 62.2558 39.8763 62.8769C40.272 63.4981 40.8127 64.0138 41.4519 64.3796C42.0911 64.7453 42.8096 64.9503 43.5456 64.9767C52.8924 65.509 61.9769 68.2661 70.0429 73.0183C92.0771 86.4479 98.1888 98.3496 98.1888 98.3496L102.893 89.6244Z" stroke="#45413C" stroke-linecap="round" stroke-linejoin="round"/>
<path d="M133.572 93.8865C136.592 98.3922 138.207 103.692 138.215 109.116C138.222 114.54 136.62 119.845 133.613 124.358C130.605 128.872 126.327 132.393 121.318 134.475C116.309 136.557 110.796 137.106 105.475 136.054C100.154 135.003 95.2642 132.396 91.4244 128.565C87.5847 124.734 84.9673 119.851 83.9033 114.532C82.8393 109.214 83.3765 103.699 85.4469 98.6855C87.5174 93.6721 91.0281 89.3854 95.535 86.3675C98.5248 84.3591 101.881 82.9603 105.413 82.2512C108.944 81.5421 112.58 81.5366 116.114 82.2351C119.647 82.9335 123.008 84.3222 126.004 86.3215C128.999 88.3209 131.571 90.8916 133.572 93.8865Z" fill="#9F5AE5"/>
<path d="M95.535 102.169C99.1015 99.7875 103.176 98.274 107.433 97.7502C111.69 97.2264 116.01 97.7069 120.047 99.1531C124.085 100.599 127.728 102.971 130.684 106.078C133.64 109.185 135.827 112.942 137.07 117.046C138.292 112.953 138.541 108.631 137.797 104.425C137.053 100.218 135.336 96.2437 132.784 92.8182C130.231 89.3927 126.914 86.6108 123.096 84.6944C119.279 82.778 115.066 81.78 110.794 81.78C106.522 81.78 102.31 82.778 98.4918 84.6944C94.674 86.6108 91.3567 89.3927 88.8045 92.8182C86.2522 96.2437 84.5355 100.218 83.7913 104.425C83.0471 108.631 83.2959 112.953 84.5179 117.046C86.3487 110.957 90.2445 105.697 95.535 102.169Z" fill="#BF8DF2"/>
<path d="M133.572 93.8865C136.592 98.3922 138.207 103.692 138.215 109.116C138.222 114.54 136.62 119.845 133.613 124.358C130.605 128.872 126.327 132.393 121.318 134.475C116.309 136.557 110.796 137.106 105.475 136.054C100.154 135.003 95.2642 132.396 91.4244 128.565C87.5847 124.734 84.9673 119.851 83.9033 114.532C82.8393 109.214 83.3765 103.699 85.4469 98.6855C87.5174 93.6721 91.0281 89.3854 95.535 86.3675C98.5248 84.3591 101.881 82.9603 105.413 82.2512C108.944 81.5421 112.58 81.5366 116.114 82.2351C119.647 82.9335 123.008 84.3222 126.004 86.3215C128.999 88.3209 131.571 90.8916 133.572 93.8865Z" stroke="#45413C" stroke-linecap="round" stroke-linejoin="round"/>
<path d="M65.9819 21.3506C66.0723 20.8947 66.2809 20.4706 66.5868 20.1206C66.8927 19.7707 67.2851 19.5072 67.7248 19.3565C68.1645 19.2059 68.636 19.1734 69.0923 19.2623C69.5485 19.3511 69.9733 19.5583 70.3244 19.8629L78.8083 26.9798C79.1009 27.2399 79.4483 27.431 79.8246 27.5389C80.201 27.6468 80.5968 27.6687 80.9828 27.6031C81.3688 27.5375 81.7351 27.386 82.0547 27.1598C82.3743 26.9336 82.6389 26.6385 82.8292 26.2962L83.3921 25.3715C86.36 20.3692 91.004 16.58 96.5 14.676L100.521 13.309C101.183 13.1074 101.897 13.1607 102.521 13.4583C103.146 13.7558 103.637 14.2762 103.898 14.9173L105.466 18.4154C107.559 23.0641 108.404 28.1776 107.919 33.2523V34.3379C107.862 34.7596 107.895 35.1886 108.016 35.5966C108.137 36.0046 108.343 36.3824 108.62 36.7052C108.897 37.028 109.24 37.2885 109.625 37.4696C110.01 37.6506 110.429 37.7481 110.854 37.7556L119.62 37.434C120.128 37.4503 120.625 37.5935 121.064 37.8504C121.504 38.1074 121.872 38.4701 122.136 38.9054C122.399 39.3408 122.55 39.8351 122.574 40.3435C122.598 40.8519 122.495 41.3583 122.274 41.8167L120.987 44.6715C118.822 49.713 115.395 54.1117 111.035 57.443C106.676 60.7743 101.531 62.9258 96.0979 63.69L81.5425 65.5396L72.375 53.4771C68.9703 48.9433 66.6282 43.7023 65.5216 38.1416C64.415 32.5808 64.5723 26.8424 65.9819 21.3506Z" fill="#6DD627"/>
<path d="M65.9818 30.4377C66.0723 29.9818 66.2809 29.5576 66.5868 29.2077C66.8927 28.8577 67.2851 28.5943 67.7248 28.4436C68.1645 28.293 68.636 28.2605 69.0923 28.3493C69.5485 28.4382 69.9733 28.6453 70.3244 28.95L78.8083 36.1875C79.1067 36.4339 79.4548 36.6132 79.8287 36.713C80.2026 36.8129 80.5936 36.831 80.9752 36.7661C81.3567 36.7013 81.7198 36.5549 82.0398 36.3371C82.3597 36.1193 82.6289 35.8352 82.8291 35.5039L83.3519 34.5792C86.308 29.5242 90.9699 25.6892 96.5 23.7631L100.521 22.3558C101.183 22.1725 101.889 22.2342 102.51 22.5297C103.13 22.8251 103.623 23.3345 103.898 23.9642L105.466 27.5025C107.559 32.1512 108.404 37.2647 107.919 42.3394V43.425C107.862 43.8447 107.895 44.2718 108.016 44.6778C108.137 45.0837 108.344 45.4591 108.621 45.7788C108.899 46.0986 109.242 46.3553 109.627 46.5318C110.012 46.7084 110.431 46.8007 110.854 46.8025L119.62 46.4808H119.982L120.987 44.591L122.274 41.696C122.495 41.2377 122.598 40.7313 122.574 40.2229C122.55 39.7145 122.399 39.2202 122.136 38.7848C121.872 38.3494 121.504 37.9868 121.064 37.7298C120.625 37.4728 120.128 37.3297 119.62 37.3133L110.854 37.635C110.429 37.6274 110.01 37.53 109.625 37.3489C109.24 37.1679 108.897 36.9074 108.62 36.5846C108.343 36.2618 108.137 35.884 108.016 35.476C107.895 35.0679 107.862 34.639 107.919 34.2173V33.1317C108.404 28.057 107.559 22.9435 105.466 18.2948L103.898 14.7967C103.637 14.1556 103.146 13.6352 102.521 13.3376C101.897 13.04 101.183 12.9868 100.521 13.1883L96.5 14.5554C90.9741 16.4428 86.2995 20.2338 83.3116 25.2508L82.7889 26.1756C82.5935 26.5122 82.3265 26.8017 82.0067 27.0235C81.687 27.2454 81.3223 27.3942 80.9387 27.4594C80.555 27.5247 80.1617 27.5047 79.7866 27.401C79.4114 27.2972 79.0638 27.1123 78.7681 26.8592L70.3244 19.8629C69.9733 19.5582 69.5485 19.3511 69.0923 19.2623C68.636 19.1734 68.1645 19.2059 67.7248 19.3565C67.2851 19.5072 66.8927 19.7707 66.5868 20.1206C66.2809 20.4706 66.0723 20.8947 65.9818 21.3506C64.8473 25.8552 64.5475 30.5295 65.0973 35.1421C65.2947 33.5572 65.5901 31.9861 65.9818 30.4377Z" fill="#9CEB60"/>
<path d="M65.9819 21.3506C66.0723 20.8947 66.2809 20.4706 66.5868 20.1206C66.8927 19.7707 67.2851 19.5072 67.7248 19.3565C68.1645 19.2059 68.636 19.1734 69.0923 19.2623C69.5485 19.3511 69.9733 19.5583 70.3244 19.8629L78.8083 26.9798C79.1009 27.2399 79.4483 27.431 79.8246 27.5389C80.201 27.6468 80.5968 27.6687 80.9828 27.6031C81.3688 27.5375 81.7351 27.386 82.0547 27.1598C82.3743 26.9336 82.6389 26.6385 82.8292 26.2962L83.3921 25.3715C86.36 20.3692 91.004 16.58 96.5 14.676L100.521 13.309C101.183 13.1074 101.897 13.1607 102.521 13.4583C103.146 13.7558 103.637 14.2762 103.898 14.9173L105.466 18.4154C107.559 23.0641 108.404 28.1776 107.919 33.2523V34.3379C107.862 34.7596 107.895 35.1886 108.016 35.5966C108.137 36.0046 108.343 36.3824 108.62 36.7052C108.897 37.028 109.24 37.2885 109.625 37.4696C110.01 37.6506 110.429 37.7481 110.854 37.7556L119.62 37.434C120.128 37.4503 120.625 37.5935 121.064 37.8504C121.504 38.1074 121.872 38.4701 122.136 38.9054C122.399 39.3408 122.55 39.8351 122.574 40.3435C122.598 40.8519 122.495 41.3583 122.274 41.8167L120.987 44.6715C118.822 49.713 115.395 54.1117 111.035 57.443C106.676 60.7743 101.531 62.9258 96.0979 63.69L81.5425 65.5396L72.375 53.4771C68.9703 48.9433 66.6282 43.7023 65.5216 38.1416C64.415 32.5808 64.5723 26.8424 65.9819 21.3506Z" stroke="#45413C" stroke-linecap="round" stroke-linejoin="round"/>
<path d="M81.6229 65.5396C81.261 57.4979 85.3623 45.6767 93.1225 35.2627" stroke="#45413C" stroke-linecap="round" stroke-linejoin="round"/>
</svg>
