<svg width="179" height="179" viewBox="0 0 179 179" fill="none" xmlns="http://www.w3.org/2000/svg">
<path opacity="0.15" d="M32.7048 169.155C32.7048 169.958 33.9201 170.753 36.2815 171.495C38.6428 172.237 42.1039 172.912 46.4671 173.48C50.8303 174.047 56.0101 174.498 61.7109 174.805C67.4117 175.113 73.5218 175.271 79.6923 175.271C85.8628 175.271 91.9728 175.113 97.6736 174.805C103.374 174.498 108.554 174.047 112.917 173.48C117.281 172.912 120.742 172.237 123.103 171.495C125.464 170.753 126.68 169.958 126.68 169.155C126.68 167.533 121.729 165.977 112.917 164.83C104.106 163.684 92.1541 163.039 79.6923 163.039C67.2304 163.039 55.279 163.684 46.4671 164.83C37.6552 165.977 32.7048 167.533 32.7048 169.155Z" fill="#45413C"/>
<path d="M140.963 87.6727C139.502 82.635 138.823 77.403 138.949 72.1594C139.046 69.2716 138.542 66.3953 137.47 63.7121C136.398 61.029 134.781 58.5975 132.721 56.5714L129.216 53.1033C127.199 51.0407 124.775 49.4215 122.097 48.3491C119.42 47.2768 116.548 46.7749 113.665 46.8756C108.403 46.9628 103.159 46.246 98.1144 44.75C77.1565 39.1189 54.3713 47.5469 37.7765 64.1044C21.1817 80.6619 12.791 103.596 18.4221 124.591C19.8708 129.631 20.5374 134.863 20.3985 140.105C20.3179 142.994 20.8325 145.869 21.9102 148.55C22.988 151.232 24.606 153.663 26.6635 155.693L30.1317 159.161C32.1577 161.221 34.5892 162.838 37.2724 163.91C39.9555 164.982 42.8319 165.485 45.7196 165.389C50.963 165.267 56.1943 165.946 61.2329 167.402C82.2281 173.033 105.013 164.605 121.571 148.048C138.128 131.49 146.556 108.668 140.963 87.6727Z" fill="#FFE500"/>
<path d="M37.7764 82.8621C54.3712 66.3046 77.1564 57.8767 98.1144 63.5077C103.165 64.9659 108.409 65.645 113.665 65.5214C116.548 65.4208 119.42 65.9226 122.097 66.995C124.775 68.0673 127.199 69.6865 129.216 71.7492L132.721 75.2173C134.781 77.2434 136.398 79.6748 137.47 82.358C138.542 85.0411 139.045 87.9175 138.949 90.8052C138.825 96.0487 139.504 101.28 140.962 106.319C141.298 107.661 141.596 109.004 141.857 110.383C143.184 102.836 142.879 95.0922 140.962 87.6727C139.502 82.635 138.823 77.403 138.949 72.1594C139.045 69.2716 138.542 66.3953 137.47 63.7121C136.398 61.029 134.781 58.5975 132.721 56.5714L129.216 53.1033C127.199 51.0407 124.775 49.4215 122.097 48.3491C119.42 47.2768 116.548 46.7749 113.665 46.8756C108.403 46.9628 103.159 46.246 98.1144 44.75C77.1564 39.1189 54.3712 47.5469 37.7764 64.1044C22.375 79.7296 13.9098 100.687 17.4898 120.527C20.2465 106.195 27.3262 93.0504 37.7764 82.8621Z" fill="#FFF48C"/>
<path d="M140.963 87.6727C139.502 82.635 138.823 77.403 138.949 72.1594C139.046 69.2716 138.542 66.3953 137.47 63.7121C136.398 61.029 134.781 58.5975 132.721 56.5714L129.216 53.1033C127.199 51.0407 124.775 49.4215 122.097 48.3491C119.42 47.2768 116.548 46.7749 113.665 46.8756C108.403 46.9628 103.159 46.246 98.1144 44.75C77.1565 39.1189 54.3713 47.5469 37.7765 64.1044C21.1817 80.6619 12.791 103.596 18.4221 124.591C19.8708 129.631 20.5374 134.863 20.3985 140.105C20.3179 142.994 20.8325 145.869 21.9102 148.55C22.988 151.232 24.606 153.663 26.6635 155.693L30.1317 159.161C32.1577 161.221 34.5892 162.838 37.2724 163.91C39.9555 164.982 42.8319 165.485 45.7196 165.389C50.963 165.267 56.1943 165.946 61.2329 167.402C82.2281 173.033 105.013 164.605 121.571 148.048C138.128 131.49 146.556 108.668 140.963 87.6727Z" stroke="#45413C" stroke-linecap="round" stroke-linejoin="round"/>
<path d="M124.069 55.9375C130.684 48.5288 139.173 43.0407 148.645 40.0513C157.893 37.5527 159.832 43.1838 160.354 47.5096C160.437 48.5902 160.093 49.6604 159.396 50.4901C158.699 51.3199 157.704 51.8431 156.625 51.9473C146.983 52.9921 137.742 56.3713 129.7 61.7923C124.666 62.1652 124.069 55.9375 124.069 55.9375Z" fill="#DEBB7E"/>
<path d="M126.381 60.6736C132.612 54.4049 140.3 49.7794 148.756 47.2113C155.096 45.5331 158.042 47.6588 159.422 50.5302C160.159 49.6881 160.534 48.5893 160.466 47.4723C160.13 43.2211 158.005 37.59 148.756 40.014C139.241 42.9958 130.71 48.4983 124.069 55.9375C124.287 57.7308 125.102 59.3988 126.381 60.6736Z" fill="#F0D5A8"/>
<path d="M124.069 55.9375C130.695 48.5414 139.181 43.0557 148.645 40.0513C157.893 37.59 159.832 43.221 160.354 47.5096C160.437 48.5902 160.093 49.6604 159.396 50.4901C158.699 51.3199 157.704 51.8431 156.625 51.9473C146.987 53.0067 137.749 56.3847 129.7 61.7923C124.666 62.1279 124.069 55.9375 124.069 55.9375Z" stroke="#45413C" stroke-linecap="round" stroke-linejoin="round"/>
<path d="M124.256 55.9375C126.441 49.5188 126.653 42.5927 124.865 36.0522C123.077 29.5117 119.371 23.6568 114.224 19.2425C109.269 14.0608 102.841 10.527 95.8105 9.11958C88.7802 7.71218 81.4872 8.49915 74.9189 11.3739C74.1974 11.6904 73.5857 12.2135 73.1609 12.8771C72.7362 13.5408 72.5175 14.3153 72.5323 15.1031C72.4555 20.7866 73.679 26.4124 76.1092 31.5506C78.5393 36.6889 82.1119 41.2037 86.5539 44.75C101.284 55.9375 116.35 43.0346 124.256 55.9375Z" fill="#6DD627"/>
<path d="M74.919 22.375C81.4747 19.4927 88.7558 18.6875 95.7829 20.0675C102.81 21.4476 109.246 24.9468 114.224 30.0944C120.234 35.4415 124.246 42.6749 125.598 50.6048C126.568 44.8121 126.031 38.8674 124.039 33.3422C122.047 27.8171 118.667 22.8973 114.224 19.056C109.247 13.9056 102.809 10.407 95.7799 9.03317C88.7506 7.65932 81.469 8.47638 74.919 11.3739C74.1974 11.6904 73.5857 12.2135 73.161 12.8771C72.7363 13.5408 72.5175 14.3153 72.5323 15.1031C72.5665 17.9485 72.8788 20.7837 73.4646 23.5683C73.8474 23.0603 74.346 22.6512 74.919 22.375Z" fill="#9CEB60"/>
<path d="M124.256 55.9375C126.441 49.5188 126.653 42.5927 124.865 36.0522C123.077 29.5117 119.371 23.6568 114.224 19.2425C109.269 14.0608 102.841 10.527 95.8105 9.11958C88.7802 7.71218 81.4872 8.49915 74.9189 11.3739C74.1974 11.6904 73.5857 12.2135 73.1609 12.8771C72.7362 13.5408 72.5175 14.3153 72.5323 15.1031C72.4555 20.7866 73.679 26.4124 76.1092 31.5506C78.5393 36.6889 82.1119 41.2037 86.5539 44.75C101.284 55.9375 116.35 43.0346 124.256 55.9375Z" stroke="#45413C" stroke-linecap="round" stroke-linejoin="round"/>
<path d="M124.256 55.9375C124.256 55.9375 124.256 33.8235 103.522 24.6871" stroke="#45413C" stroke-linecap="round" stroke-linejoin="round"/>
</svg>
