<svg width="222" height="222" viewBox="0 0 222 222" fill="none" xmlns="http://www.w3.org/2000/svg">
<path opacity="0.15" d="M55.4075 210.114C55.4075 211.067 56.8454 212.012 59.6392 212.892C62.433 213.773 66.5279 214.574 71.6901 215.248C76.8524 215.922 82.9808 216.457 89.7256 216.822C96.4704 217.187 103.699 217.375 111 217.375C118.3 217.375 125.53 217.187 132.274 216.822C139.019 216.457 145.148 215.922 150.31 215.248C155.472 214.574 159.567 213.773 162.361 212.892C165.155 212.012 166.592 211.067 166.592 210.114C166.592 208.188 160.735 206.341 150.31 204.979C139.884 203.618 125.744 202.852 111 202.852C96.2559 202.852 82.1158 203.618 71.6901 204.979C61.2645 206.341 55.4075 208.188 55.4075 210.114Z" fill="#45413C"/>
<path d="M33.6238 130.749C33.6238 140.91 35.6252 150.972 39.5137 160.359C43.4022 169.747 49.1017 178.277 56.2868 185.462C63.4718 192.647 72.0017 198.347 81.3894 202.235C90.7771 206.124 100.839 208.125 111 208.125C121.161 208.125 131.223 206.124 140.611 202.235C149.998 198.347 158.528 192.647 165.713 185.462C172.898 178.277 178.598 169.747 182.486 160.359C186.375 150.972 188.376 140.91 188.376 130.749C188.376 110.227 180.224 90.5463 165.713 76.0355C151.202 61.5246 131.521 53.3725 111 53.3725C90.4786 53.3725 70.7976 61.5246 56.2868 76.0355C41.7759 90.5463 33.6238 110.227 33.6238 130.749Z" fill="#FFAA54"/>
<path d="M111 72.705C129.837 72.725 148.021 79.6121 162.146 92.0762C176.27 104.54 185.366 121.726 187.729 140.415C188.132 137.208 188.348 133.981 188.376 130.749C188.376 110.227 180.224 90.5463 165.713 76.0355C151.202 61.5246 131.521 53.3725 111 53.3725C90.4786 53.3725 70.7976 61.5246 56.2868 76.0355C41.7759 90.5463 33.6238 110.227 33.6238 130.749C33.6518 133.981 33.868 137.208 34.2713 140.415C36.6344 121.726 45.73 104.54 59.8543 92.0762C73.9786 79.6121 92.1626 72.725 111 72.705Z" fill="#FFCC99"/>
<path d="M33.6238 130.749C33.6238 140.91 35.6252 150.972 39.5137 160.359C43.4022 169.747 49.1017 178.277 56.2868 185.462C63.4718 192.647 72.0017 198.347 81.3894 202.235C90.7771 206.124 100.839 208.125 111 208.125C121.161 208.125 131.223 206.124 140.611 202.235C149.998 198.347 158.528 192.647 165.713 185.462C172.898 178.277 178.598 169.747 182.486 160.359C186.375 150.972 188.376 140.91 188.376 130.749C188.376 110.227 180.224 90.5463 165.713 76.0355C151.202 61.5246 131.521 53.3725 111 53.3725C90.4786 53.3725 70.7976 61.5246 56.2868 76.0355C41.7759 90.5463 33.6238 110.227 33.6238 130.749Z" stroke="#45413C" stroke-linecap="round" stroke-linejoin="round"/>
<path d="M72.0112 65.4437C72.0112 65.4437 59.7087 50.32 67.8487 33.7625C75.9887 17.205 75.5262 8.09375 75.5262 8.09375C75.5262 8.09375 97.0325 14.1062 96.0612 35.8438C95.09 57.5813 72.0112 65.4437 72.0112 65.4437Z" fill="#6DD627"/>
<path d="M75.2487 41.3013C80.674 32.9708 84.3992 23.6501 86.21 13.875C83.031 11.3127 79.4102 9.35334 75.5262 8.09375C75.5262 8.09375 75.9887 17.3438 67.8487 33.7625C59.7087 50.1813 72.0112 65.4437 72.0112 65.4437L72.6587 65.2125C71.2691 61.2879 70.7803 57.1009 71.2287 52.9617C71.677 48.8225 73.051 44.8373 75.2487 41.3013Z" fill="#9CEB60"/>
<path d="M72.0112 65.4437C72.0112 65.4437 59.7087 50.32 67.8487 33.7625C75.9887 17.205 75.5262 8.09375 75.5262 8.09375C75.5262 8.09375 97.0325 14.1062 96.0612 35.8438C95.09 57.5813 72.0112 65.4437 72.0112 65.4437Z" stroke="#45413C" stroke-linecap="round" stroke-linejoin="round"/>
<path d="M64.75 81.4C64.75 81.4 66.97 82.6025 74.4163 78.9488C76.4344 78.225 78.2035 76.9391 79.5147 75.2428C80.8259 73.5464 81.6245 71.5104 81.8163 69.375" stroke="#45413C" stroke-linecap="round" stroke-linejoin="round"/>
<path d="M72.0112 65.4437C72.0112 65.4437 69.375 46.25 75.9425 37" stroke="#45413C" stroke-linecap="round" stroke-linejoin="round"/>
<path d="M78.625 76.1738C77.4404 77.3288 76.063 78.268 74.555 78.9488C73.0537 79.675 71.5091 80.3083 69.93 80.845C66.4615 74.882 61.179 70.1828 54.8525 67.4325C43.1975 63.085 40.3763 77.6538 38.5263 62.2988C36.6763 46.9438 47.5913 44.215 62.345 55.5C69.3996 60.9371 74.9937 68.0409 78.625 76.1738Z" fill="#6DD627"/>
<path d="M78.625 76.1738C77.539 77.1759 76.3262 78.0312 75.0175 78.7175C71.7214 73.3806 67.4914 68.6807 62.53 64.8425C50.3663 55.5925 40.9775 55.5925 38.9888 64.8425C38.9888 64.1025 38.9888 63.3163 38.665 62.4838C37 46.8975 47.5913 44.215 62.345 55.5C69.3996 60.9371 74.9937 68.0409 78.625 76.1738Z" fill="#9CEB60"/>
<path d="M78.625 76.1738C77.4404 77.3288 76.063 78.268 74.555 78.9488C73.0537 79.675 71.5091 80.3083 69.93 80.845C66.4615 74.882 61.179 70.1828 54.8525 67.4325C43.1975 63.085 40.3763 77.6538 38.5263 62.2988C36.6763 46.9438 47.5913 44.215 62.345 55.5C69.3996 60.9371 74.9937 68.0409 78.625 76.1738Z" stroke="#45413C" stroke-linecap="round" stroke-linejoin="round"/>
</svg>
