<svg width="205" height="205" viewBox="0 0 205 205" fill="none" xmlns="http://www.w3.org/2000/svg">
<path opacity="0.15" d="M44.3312 193.127C44.3312 195.143 50.4597 197.077 61.3685 198.503C72.2772 199.928 87.0727 200.729 102.5 200.729C117.927 200.729 132.723 199.928 143.632 198.503C154.54 197.077 160.669 195.143 160.669 193.127C160.669 191.111 154.54 189.177 143.632 187.752C132.723 186.326 117.927 185.525 102.5 185.525C87.0727 185.525 72.2772 186.326 61.3685 187.752C50.4597 189.177 44.3312 191.111 44.3312 193.127Z" fill="#45413C"/>
<path d="M152.469 107.283C150.859 103.884 149.954 100.195 149.807 96.4373C149.661 92.6795 150.275 88.9308 151.615 85.4167C152.977 82.1623 153.841 78.7212 154.177 75.2094C155.277 66.766 153.185 58.2162 148.31 51.2349C143.436 44.2537 136.13 39.3442 127.824 37.4682C119.519 35.5923 110.812 36.8851 103.41 41.0934C96.0081 45.3018 90.4441 52.1223 87.8083 60.2187C84.988 67.711 79.39 73.829 72.1771 77.3021C64.3875 81.0478 57.5157 86.4586 52.0473 93.1521C46.5788 99.8456 42.6472 107.658 40.5302 116.039C35.8182 131.052 37.2634 147.323 44.5479 161.272C51.8325 175.22 64.3596 185.703 79.3734 190.415C94.3873 195.127 110.658 193.682 124.606 186.397C138.555 179.113 149.038 166.586 153.75 151.572C159.099 137.204 158.64 121.318 152.469 107.283Z" fill="#9CEB60"/>
<path d="M153.75 133.677C149.223 146.101 140.669 156.654 129.45 163.654C118.232 170.654 104.993 173.699 91.8437 172.304C78.694 170.909 66.3893 165.154 56.889 155.956C47.3887 146.758 41.2392 134.646 39.4198 121.548C37.2408 136.023 40.4907 150.793 48.5444 163.016C56.5981 175.24 68.8868 184.054 83.0472 187.764C97.2075 191.473 112.239 189.817 125.252 183.112C138.264 176.407 148.338 165.128 153.536 151.444C157.072 142.003 158.131 131.813 156.611 121.847C156.077 125.88 155.118 129.846 153.75 133.677Z" fill="#6DD627"/>
<path d="M151.615 85.4167C152.977 82.1623 153.841 78.7212 154.177 75.2094C155.277 66.766 153.185 58.2162 148.31 51.2349C143.436 44.2537 136.13 39.3442 127.824 37.4682C119.519 35.5923 110.812 36.8851 103.41 41.0934C96.0081 45.3018 90.4441 52.1223 87.8083 60.2187C84.988 67.711 79.39 73.829 72.1771 77.3021C64.3875 81.0478 57.5157 86.4586 52.0473 93.1521C46.5788 99.8456 42.6472 107.658 40.5302 116.039C35.8182 131.052 37.2634 147.323 44.5479 161.272C51.8325 175.22 64.3596 185.703 79.3734 190.415C94.3873 195.127 110.658 193.682 124.606 186.397C138.555 179.113 149.038 166.586 153.75 151.572C159.167 137.232 158.784 121.346 152.682 107.283C151.039 103.899 150.097 100.217 149.913 96.4591C149.73 92.7012 150.308 88.945 151.615 85.4167Z" stroke="#45413C" stroke-linecap="round" stroke-linejoin="round"/>
<path d="M125.861 44.8437C127.813 38.9816 130.697 33.4726 134.403 28.5292C136.948 24.7667 140.585 21.8749 144.824 20.2437C144.824 20.2437 150.974 18.8771 153.366 23.4469C154.766 25.8797 155.406 28.6763 155.202 31.476C150.936 32.3118 146.927 34.1407 143.5 36.8146C139.674 40.8476 136.36 45.3375 133.634 50.1823C131.958 50.1536 130.327 49.6321 128.944 48.6828C127.562 47.7335 126.49 46.3983 125.861 44.8437Z" fill="#B89558"/>
<path d="M129.15 48.8583C130.951 44.6225 133.26 40.6213 136.026 36.9427C138.579 33.198 142.215 30.3222 146.447 28.7C147.995 28.3022 149.625 28.3608 151.141 28.8685C152.656 29.3762 153.992 30.3114 154.989 31.5615H155.458C155.662 28.7617 155.022 25.9651 153.622 23.5323C151.187 18.9625 145.08 20.3292 145.08 20.3292C140.841 21.9603 137.204 24.8521 134.659 28.6146C130.945 33.5528 128.06 39.0632 126.118 44.9292C126.717 46.5101 127.773 47.8776 129.15 48.8583Z" fill="#DEBB7E"/>
<path d="M125.861 44.8437C127.804 38.9777 130.689 33.4674 134.403 28.5292C136.948 24.7667 140.585 21.8749 144.824 20.2437C144.824 20.2437 150.974 18.8771 153.366 23.4469C154.766 25.8797 155.406 28.6763 155.202 31.476C150.929 32.2898 146.915 34.121 143.5 36.8146C139.674 40.8476 136.36 45.3375 133.634 50.1823C131.958 50.1536 130.327 49.6321 128.944 48.6828C127.562 47.7335 126.49 46.3983 125.861 44.8437Z" stroke="#45413C" stroke-linecap="round" stroke-linejoin="round"/>
<path d="M127.143 35.3198C127.143 35.3198 130.688 22.2083 115.099 13.9656C101.646 7.17499 93.9583 10.6344 84.4344 10.976C83.9356 10.9952 83.4487 11.1338 83.0147 11.3803C82.5806 11.6267 82.2121 11.9738 81.94 12.3923C81.668 12.8108 81.5004 13.2885 81.4514 13.7853C81.4024 14.282 81.4734 14.7833 81.6583 15.2469C88.4917 29.8958 103.013 48.2604 127.143 35.3198Z" fill="#6DD627"/>
<path d="M85.4167 10.8906H84.3917C83.8929 10.9098 83.406 11.0484 82.9719 11.2949C82.5379 11.5413 82.1693 11.8884 81.8973 12.3069C81.6253 12.7254 81.4577 13.2031 81.4087 13.6999C81.3597 14.1966 81.4306 14.6979 81.6156 15.1615C88.449 29.5115 102.97 48.0469 127.1 35.1062C127.839 31.4702 127.374 27.6923 125.776 24.3437C106.216 34.1667 93.1042 23.1052 85.4167 10.8906Z" fill="#46B000"/>
<path d="M127.143 35.3198C127.143 35.3198 130.688 22.2083 115.099 13.9656C101.646 7.17499 93.9583 10.6344 84.4344 10.976C83.9356 10.9952 83.4487 11.1338 83.0147 11.3803C82.5806 11.6267 82.2121 11.9738 81.94 12.3923C81.668 12.8108 81.5004 13.2885 81.4514 13.7853C81.4024 14.282 81.4734 14.7833 81.6583 15.2469C88.4917 29.8958 103.013 48.2604 127.143 35.3198Z" stroke="#45413C" stroke-linecap="round" stroke-linejoin="round"/>
</svg>
