<svg width="186" height="186" viewBox="0 0 186 186" fill="none" xmlns="http://www.w3.org/2000/svg">
<path opacity="0.15" d="M37.1613 175.034C37.1613 176.914 43.3954 178.718 54.4921 180.048C65.5889 181.378 80.6393 182.125 96.3325 182.125C112.026 182.125 127.076 181.378 138.173 180.048C149.27 178.718 155.504 176.914 155.504 175.034C155.504 173.153 149.27 171.349 138.173 170.019C127.076 168.69 112.026 167.943 96.3325 167.943C80.6393 167.943 65.5889 168.69 54.4921 170.019C43.3954 171.349 37.1613 173.153 37.1613 175.034Z" fill="#45413C"/>
<path d="M74.1675 29.14L59.5588 35.9987C16.9338 56.0325 13.0588 116.366 53.5525 140.236L104.625 169.066C108.681 171.362 113.229 172.653 117.887 172.83C122.544 173.008 127.177 172.067 131.396 170.086C135.616 168.105 139.299 165.143 142.138 161.446C144.977 157.749 146.89 153.426 147.715 148.839L157.906 92.3412C166.625 43.0125 115.824 9.57124 74.1675 29.14Z" fill="#FF6242"/>
<path d="M59.7138 57.7762L74.3225 50.9175C109.198 34.5262 150.738 55.4512 157.868 91.76C166.276 42.625 115.669 9.64874 74.1675 29.14L59.5588 35.9987C47.4846 41.6611 37.6501 51.1974 31.6188 63.0915C25.5875 74.9856 23.7056 88.5547 26.2725 101.641C27.8653 92.1636 31.7426 83.2166 37.5693 75.5738C43.3959 67.9309 50.9965 61.8224 59.7138 57.7762Z" fill="#FF866E"/>
<path d="M74.1675 29.14L59.5588 35.9987C16.9338 56.0325 13.0588 116.366 53.5525 140.236L104.625 169.066C108.681 171.362 113.229 172.653 117.887 172.83C122.544 173.008 127.177 172.067 131.396 170.086C135.616 168.105 139.299 165.143 142.138 161.446C144.977 157.749 146.89 153.426 147.715 148.839L157.906 92.3412C166.625 43.0125 115.824 9.57124 74.1675 29.14Z" stroke="#45413C" stroke-linecap="round" stroke-linejoin="round"/>
<path d="M108.732 38.0138L103.346 32.9763C102.802 32.4313 102.496 31.6927 102.496 30.9225C102.496 30.1523 102.802 29.4137 103.346 28.8688L107.221 24.9938C107.778 24.5865 108.171 23.9948 108.331 23.3243C108.491 22.6537 108.408 21.9481 108.096 21.3333C107.784 20.7186 107.264 20.2348 106.628 19.9683C105.992 19.7019 105.282 19.6701 104.625 19.8788L99.1225 20.1888C98.7376 20.215 98.3513 20.1643 97.9862 20.0397C97.621 19.9151 97.2844 19.719 96.9958 19.4629C96.7073 19.2068 96.4726 18.8958 96.3055 18.5481C96.1384 18.2003 96.0422 17.8228 96.0225 17.4375L95.5962 10.075C95.5825 9.54109 95.4239 9.02096 95.1373 8.57028C94.8507 8.11959 94.4469 7.75533 93.9692 7.51648C93.4915 7.27763 92.9579 7.17318 92.4254 7.21432C91.8929 7.25545 91.3816 7.44062 90.9462 7.75001L74.09 20.6538C73.6834 20.9714 73.1977 21.1718 72.6855 21.2333C72.1732 21.2947 71.6539 21.2149 71.1837 21.0025L66.7662 19.1425C65.3078 17.4732 64.0103 15.6697 62.8912 13.7563C61.1475 9.88126 52.1962 14.6088 53.785 18.0188C54.5962 20.5277 55.0654 23.1345 55.18 25.7688L54.25 28.9075C54.0984 29.4051 53.8178 29.8537 53.4367 30.2076C53.0555 30.5615 52.5874 30.8082 52.08 30.9225L31.6587 35.7663C31.1422 35.8879 30.6682 36.1468 30.2868 36.5157C29.9053 36.8845 29.6306 37.3496 29.4917 37.8617C29.3527 38.3738 29.3547 38.9139 29.4974 39.4249C29.6402 39.936 29.9183 40.399 30.3025 40.765L35.6887 45.7638C36.2353 46.3153 36.542 47.0604 36.542 47.8369C36.542 48.6134 36.2353 49.3585 35.6887 49.91L31.8137 53.785C31.422 54.2164 31.167 54.7543 31.0811 55.3307C30.9952 55.9071 31.0822 56.4959 31.3312 57.0228C31.5801 57.5497 31.9797 57.9909 32.4795 58.2906C32.9793 58.5902 33.5567 58.7349 34.1387 58.7063L39.68 58.3575C40.4587 58.3255 41.2191 58.5996 41.7984 59.1209C42.3777 59.6423 42.73 60.3697 42.78 61.1475L43.2062 68.4713C43.2289 69.0044 43.3979 69.5211 43.6948 69.9646C43.9916 70.408 44.4049 70.7612 44.8892 70.9854C45.3735 71.2095 45.9102 71.296 46.4404 71.2353C46.9706 71.1746 47.4738 70.9691 47.895 70.6413L64.945 58.125C65.3593 57.8078 65.8514 57.6081 66.3696 57.5467C66.8878 57.4854 67.413 57.5646 67.89 57.7763L77.6937 62C78.0693 62.1459 78.4708 62.2131 78.8734 62.1976C79.276 62.1821 79.6711 62.0841 80.0343 61.9098C80.3975 61.7354 80.7211 61.4884 80.985 61.184C81.249 60.8796 81.4476 60.5243 81.5687 60.14L84.5912 49.91C84.7394 49.4172 85.0142 48.9719 85.3882 48.6183C85.7621 48.2648 86.2221 48.0154 86.7225 47.895L107.299 43.0513C107.829 42.9449 108.32 42.6944 108.718 42.3272C109.115 41.96 109.404 41.4904 109.552 40.9699C109.7 40.4494 109.702 39.8981 109.558 39.3766C109.413 38.8552 109.128 38.3836 108.732 38.0138Z" fill="#6DD627"/>
<path d="M66.7662 19.1425C69.3035 22.23 72.3587 24.8524 75.795 26.8925L82.9637 21.5063C83.3849 21.1785 83.8881 20.9729 84.4183 20.9123C84.9485 20.8516 85.4852 20.938 85.9695 21.1622C86.4538 21.3863 86.8671 21.7395 87.1639 22.183C87.4608 22.6264 87.6298 23.1431 87.6525 23.6763L88.0787 31C88.0986 31.3869 88.1945 31.7661 88.3612 32.1159C88.5278 32.4657 88.7618 32.7791 89.0498 33.0383C89.3377 33.2975 89.674 33.4973 90.0394 33.6263C90.4047 33.7553 90.7919 33.8109 91.1787 33.79L96.875 33.5963C97.4645 33.5596 98.0515 33.7011 98.5596 34.0024C99.0677 34.3037 99.4734 34.7508 99.7241 35.2856C99.9749 35.8205 100.059 36.4184 99.9655 37.0016C99.872 37.5849 99.6053 38.1265 99.2 38.5563L95.325 42.4313C94.9111 42.8864 94.648 43.4583 94.5716 44.0687C94.4953 44.6792 94.6096 45.2983 94.8987 45.8413L107.531 42.8575C108.045 42.7307 108.514 42.468 108.891 42.097C109.268 41.726 109.538 41.2603 109.673 40.749C109.808 40.2376 109.802 39.6994 109.657 39.1908C109.512 38.6823 109.233 38.2221 108.849 37.8588L103.462 32.8213C102.918 32.2763 102.613 31.5377 102.613 30.7675C102.613 29.9973 102.918 29.2587 103.462 28.7138L107.337 24.8388C107.822 24.4006 108.145 23.812 108.254 23.1679C108.363 22.5237 108.252 21.8617 107.938 21.2885C107.625 20.7153 107.127 20.2644 106.526 20.0087C105.925 19.7529 105.255 19.7071 104.625 19.8788L99.1225 20.1888C98.7376 20.215 98.3513 20.1643 97.9862 20.0397C97.621 19.9151 97.2844 19.719 96.9958 19.4629C96.7073 19.2068 96.4726 18.8958 96.3055 18.5481C96.1384 18.2003 96.0422 17.8228 96.0225 17.4375L95.5962 10.075C95.5825 9.54109 95.4239 9.02096 95.1373 8.57028C94.8507 8.11959 94.447 7.75533 93.9693 7.51648C93.4915 7.27763 92.9579 7.17318 92.4254 7.21432C91.8929 7.25545 91.3816 7.44062 90.9462 7.75001L74.09 20.6538C73.6834 20.9714 73.1977 21.1718 72.6855 21.2333C72.1732 21.2947 71.6539 21.2149 71.1837 21.0025L66.7662 19.1425Z" fill="#9CEB60"/>
<path d="M53.7075 95.4025C56.11 100.556 55.6838 105.826 52.7775 107.028C49.8713 108.229 45.4925 105.361 43.09 100.246C40.6875 95.1312 41.1138 89.8225 44.0588 88.6213C47.0038 87.42 51.305 90.2875 53.7075 95.4025Z" fill="#E04122" stroke="#45413C" stroke-linecap="round" stroke-linejoin="round"/>
<path d="M84.5913 119.776C86.9938 124.93 86.5675 130.2 83.6225 131.401C80.6775 132.602 76.3763 129.735 73.9738 124.62C71.5713 119.505 71.9975 114.196 74.9038 112.995C77.81 111.794 82.1888 114.661 84.5913 119.776Z" fill="#E04122" stroke="#45413C" stroke-linecap="round" stroke-linejoin="round"/>
<path d="M94.7825 79.36C97.185 84.5137 96.7587 89.7837 93.8137 90.985C90.8687 92.1862 86.5675 89.3187 84.165 84.2037C81.7625 79.0887 82.1887 73.78 85.095 72.5787C88.0012 71.3775 92.38 74.245 94.7825 79.36Z" fill="#E04122" stroke="#45413C" stroke-linecap="round" stroke-linejoin="round"/>
<path d="M120.939 135.121C123.341 140.236 122.915 145.506 119.97 146.746C117.025 147.986 112.724 145.08 110.321 139.926C107.919 134.772 108.345 129.541 111.251 128.301C114.157 127.061 118.536 129.967 120.939 135.121Z" fill="#E04122" stroke="#45413C" stroke-linecap="round" stroke-linejoin="round"/>
<path d="M136.013 56.8075C138.415 61.9225 137.989 67.1925 135.044 68.4325C132.099 69.6725 127.798 66.7662 125.395 61.6125C122.993 56.4587 123.38 51.2275 126.325 49.9875C129.27 48.7475 133.571 51.6537 136.013 56.8075Z" fill="#E04122" stroke="#45413C" stroke-linecap="round" stroke-linejoin="round"/>
<path d="M132.37 97.3788C134.773 102.494 134.346 107.764 131.401 109.004C128.456 110.244 124.155 107.338 121.753 102.184C119.35 97.03 119.776 91.7988 122.683 90.5588C125.589 89.3188 129.968 92.225 132.37 97.3788Z" fill="#E04122" stroke="#45413C" stroke-linecap="round" stroke-linejoin="round"/>
<path d="M51.7313 42.8962C57.2338 40.3 55.6063 21.4287 53.94 18.0187C52.2738 14.6087 61.3025 9.9975 63.0463 13.7562C64.79 17.515 75.8338 31.5812 83.5838 27.9387" stroke="#45413C" stroke-linecap="round" stroke-linejoin="round"/>
<path d="M108.732 38.0138L103.346 32.9763C102.802 32.4313 102.496 31.6927 102.496 30.9225C102.496 30.1523 102.802 29.4137 103.346 28.8688L107.221 24.9938C107.778 24.5865 108.171 23.9948 108.331 23.3243C108.491 22.6537 108.408 21.9481 108.096 21.3333C107.784 20.7186 107.264 20.2348 106.628 19.9683C105.992 19.7019 105.282 19.6701 104.625 19.8788L99.1225 20.1888C98.7376 20.215 98.3513 20.1643 97.9862 20.0397C97.621 19.9151 97.2844 19.719 96.9958 19.4629C96.7073 19.2068 96.4726 18.8958 96.3055 18.5481C96.1384 18.2003 96.0422 17.8228 96.0225 17.4375L95.5962 10.075C95.5825 9.54109 95.4239 9.02096 95.1373 8.57028C94.8507 8.11959 94.4469 7.75533 93.9692 7.51648C93.4915 7.27763 92.9579 7.17318 92.4254 7.21432C91.8929 7.25545 91.3816 7.44062 90.9462 7.75001L74.09 20.6538C73.6834 20.9714 73.1977 21.1718 72.6855 21.2333C72.1732 21.2947 71.6539 21.2149 71.1837 21.0025L66.7662 19.1425C65.3078 17.4732 64.0103 15.6697 62.8912 13.7563C61.1475 9.88126 52.1962 14.6088 53.785 18.0188C54.5962 20.5277 55.0654 23.1345 55.18 25.7688L54.25 28.9075C54.0984 29.4051 53.8178 29.8537 53.4367 30.2076C53.0555 30.5615 52.5874 30.8082 52.08 30.9225L31.6587 35.7663C31.1422 35.8879 30.6682 36.1468 30.2868 36.5157C29.9053 36.8845 29.6306 37.3496 29.4917 37.8617C29.3527 38.3738 29.3547 38.9139 29.4974 39.4249C29.6402 39.936 29.9183 40.399 30.3025 40.765L35.6887 45.7638C36.2353 46.3153 36.542 47.0604 36.542 47.8369C36.542 48.6134 36.2353 49.3585 35.6887 49.91L31.8137 53.785C31.422 54.2164 31.167 54.7543 31.0811 55.3307C30.9952 55.9071 31.0822 56.4959 31.3312 57.0228C31.5801 57.5497 31.9797 57.9909 32.4795 58.2906C32.9793 58.5902 33.5567 58.7349 34.1387 58.7063L39.68 58.3575C40.4587 58.3255 41.2191 58.5996 41.7984 59.1209C42.3777 59.6423 42.73 60.3697 42.78 61.1475L43.2062 68.4713C43.2289 69.0044 43.3979 69.5211 43.6948 69.9646C43.9916 70.408 44.4049 70.7612 44.8892 70.9854C45.3735 71.2095 45.9102 71.296 46.4404 71.2353C46.9706 71.1746 47.4738 70.9691 47.895 70.6413L64.945 58.125C65.3593 57.8078 65.8514 57.6081 66.3696 57.5467C66.8878 57.4854 67.413 57.5646 67.89 57.7763L77.6937 62C78.0693 62.1459 78.4708 62.2131 78.8734 62.1976C79.276 62.1821 79.6711 62.0841 80.0343 61.9098C80.3975 61.7354 80.7211 61.4884 80.985 61.184C81.249 60.8796 81.4476 60.5243 81.5687 60.14L84.5912 49.91C84.7394 49.4172 85.0142 48.9719 85.3882 48.6183C85.7621 48.2648 86.2221 48.0154 86.7225 47.895L107.299 43.0513C107.829 42.9449 108.32 42.6944 108.718 42.3272C109.115 41.96 109.404 41.4904 109.552 40.9699C109.7 40.4494 109.702 39.8981 109.558 39.3766C109.413 38.8552 109.128 38.3836 108.732 38.0138Z" stroke="#45413C" stroke-linecap="round" stroke-linejoin="round"/>
</svg>
